<svg width="62" height="50" viewBox="0 0 62 50" fill="none" xmlns="http://www.w3.org/2000/svg">
<rect width="61.5078" height="50.0006" rx="16" fill="#FAFF00"/>
<path d="M42 17H37V16C37 15.2044 36.6839 14.4413 36.1213 13.8787C35.5587 13.3161 34.7956 13 34 13H28C27.2044 13 26.4413 13.3161 25.8787 13.8787C25.3161 14.4413 25 15.2044 25 16V17H20C19.4696 17 18.9609 17.2107 18.5858 17.5858C18.2107 17.9609 18 18.4696 18 19V35C18 35.5304 18.2107 36.0391 18.5858 36.4142C18.9609 36.7893 19.4696 37 20 37H42C42.5304 37 43.0391 36.7893 43.4142 36.4142C43.7893 36.0391 44 35.5304 44 35V19C44 18.4696 43.7893 17.9609 43.4142 17.5858C43.0391 17.2107 42.5304 17 42 17ZM27 16C27 15.7348 27.1054 15.4804 27.2929 15.2929C27.4804 15.1054 27.7348 15 28 15H34C34.2652 15 34.5196 15.1054 34.7071 15.2929C34.8946 15.4804 35 15.7348 35 16V17H27V16ZM42 19V24.2013C38.6247 26.0385 34.8429 27.0007 31 27C27.1573 27.0007 23.3755 26.0389 20 24.2025V19H42ZM42 35H20V26.455C23.4249 28.1302 27.1873 29.0007 31 29C34.8127 29.0001 38.5751 28.1292 42 26.4538V35ZM28 24C28 23.7348 28.1054 23.4804 28.2929 23.2929C28.4804 23.1054 28.7348 23 29 23H33C33.2652 23 33.5196 23.1054 33.7071 23.2929C33.8946 23.4804 34 23.7348 34 24C34 24.2652 33.8946 24.5196 33.7071 24.7071C33.5196 24.8946 33.2652 25 33 25H29C28.7348 25 28.4804 24.8946 28.2929 24.7071C28.1054 24.5196 28 24.2652 28 24Z" fill="black"/>
</svg>
