<svg width="50" height="40" viewBox="0 0 50 40" fill="none" xmlns="http://www.w3.org/2000/svg">
<g clip-path="url(#clip0_162_1697)">
<path d="M5.092 0.542286C5.092 0.242789 5.31813 0 5.59707 0H49.4949C49.7739 0 50 0.242789 50 0.542286V33.1724C50 33.472 49.7739 33.7147 49.4949 33.7147H5.59707C5.31813 33.7147 5.092 33.472 5.092 33.1724V0.542286Z" fill="#F1F1F1"/>
<path d="M5.092 28.9116H50V33.1723C50 33.4718 49.7739 33.7146 49.4949 33.7146H5.59707C5.31813 33.7146 5.092 33.4718 5.092 33.1723V28.9116Z" fill="#F5F5F5"/>
<path d="M19.9843 39.6487C19.9047 39.5632 19.9122 39.3078 20.0855 39.1685H35.0067C35.1798 39.3078 35.1943 39.5093 35.1077 39.6487C35.0182 39.7929 34.5737 39.8242 34.3427 39.8192H20.7492C20.5182 39.8242 20.1143 39.7882 19.9843 39.6487Z" fill="url(#paint0_linear_162_1697)"/>
<path d="M22.4377 33.7148C22.4377 33.7148 21.9902 37.17 21.8604 37.5418C21.7304 37.9138 21.0955 38.3165 20.98 38.4096C20.8647 38.5024 20.4606 38.8123 20.2875 38.9517C20.1143 39.0913 19.9004 39.2519 19.9843 39.4321C20.0565 39.5871 20.5182 39.6077 20.7492 39.6024H34.3427C34.5737 39.6077 35.0355 39.5871 35.1077 39.4321C35.1916 39.2519 34.9777 39.0913 34.8045 38.9517C34.6314 38.8123 34.2275 38.5024 34.112 38.4096C33.9965 38.3165 33.3616 37.9138 33.2316 37.5418C33.1018 37.17 32.6545 33.7148 32.6545 33.7148H22.4377Z" fill="#F5F5F5"/>
<path d="M22.4377 33.7148C22.4377 33.7148 21.9902 37.17 21.8604 37.5418C21.7304 37.9138 21.0955 38.3165 20.98 38.4096C20.8647 38.5024 20.4606 38.8123 20.2875 38.9517C20.1143 39.0913 19.9004 39.2519 19.9843 39.4321C20.0565 39.5871 20.5182 39.6077 20.7492 39.6024H34.3427C34.5737 39.6077 35.0355 39.5871 35.1077 39.4321C35.1916 39.2519 34.9777 39.0913 34.8045 38.9517C34.6314 38.8123 34.2275 38.5024 34.112 38.4096C33.9965 38.3165 33.3616 37.9138 33.2316 37.5418C33.1018 37.17 32.6545 33.7148 32.6545 33.7148H22.4377Z" fill="url(#paint1_radial_162_1697)"/>
<path d="M22.4377 33.7148C22.4377 33.7148 21.9902 37.17 21.8604 37.5418C21.7304 37.9138 21.0955 38.3165 20.98 38.4096C20.8647 38.5024 20.4606 38.8123 20.2875 38.9517C20.1143 39.0913 19.9004 39.2519 19.9843 39.4321C20.0565 39.5871 20.5182 39.6077 20.7492 39.6024H34.3427C34.5737 39.6077 35.0355 39.5871 35.1077 39.4321C35.1916 39.2519 34.9777 39.0913 34.8045 38.9517C34.6314 38.8123 34.2275 38.5024 34.112 38.4096C33.9965 38.3165 33.3616 37.9138 33.2316 37.5418C33.1018 37.17 32.6545 33.7148 32.6545 33.7148H22.4377Z" fill="url(#paint2_linear_162_1697)"/>
<path d="M22.4377 33.7148C22.4377 33.7148 21.9902 37.17 21.8604 37.5418C21.7304 37.9138 21.0955 38.3165 20.98 38.4096C20.8647 38.5024 20.4606 38.8123 20.2875 38.9517C20.1143 39.0913 19.9004 39.2519 19.9843 39.4321C20.0565 39.5871 20.5182 39.6077 20.7492 39.6024H34.3427C34.5737 39.6077 35.0355 39.5871 35.1077 39.4321C35.1916 39.2519 34.9777 39.0913 34.8045 38.9517C34.6314 38.8123 34.2275 38.5024 34.112 38.4096C33.9965 38.3165 33.3616 37.9138 33.2316 37.5418C33.1018 37.17 32.6545 33.7148 32.6545 33.7148H22.4377Z" fill="url(#paint3_linear_162_1697)"/>
<path fill-rule="evenodd" clip-rule="evenodd" d="M48.4559 1.81259H6.63604V27.1297H48.4559V1.81259ZM6.59274 1.76611V27.1762H48.4992V1.76611H6.59274Z" fill="#E1E1E1"/>
<path d="M6.67937 1.85938H48.4125V27.0835H6.67937V1.85938Z" fill="#F5F5F5"/>
<path d="M6.68512 1.85938H48.4184V27.0835H6.68512V1.85938Z" fill="#F5F5F5"/>
<path d="M6.60243 1.76611H48.4992V27.0831H6.60243V1.76611Z" fill="#0063F7"/>
<path d="M6.60243 1.76611H48.4992V27.0831H6.60243V1.76611Z" fill="url(#paint4_linear_162_1697)"/>
<path d="M11.0785 39.6804C11.0785 39.7748 8.59849 39.8514 5.53924 39.8514C2.48 39.8514 0 39.7748 0 39.6804C0 39.5859 2.48 39.5093 5.53924 39.5093C8.59849 39.5093 11.0785 39.5859 11.0785 39.6804Z" fill="#C4C4C4" fill-opacity="0.01"/>
<path d="M2.17762 39.7536H8.90086C9.10007 39.7536 9.29005 39.7113 9.46335 39.6343C9.46335 39.6343 7.13164 38.3736 5.55062 38.3858C3.9696 38.398 1.61513 39.6343 1.61513 39.6343C1.78843 39.7113 1.97841 39.7536 2.17762 39.7536Z" fill="#C4C4C4" fill-opacity="0.01"/>
<path d="M0.7052 20.3539C0.7052 19.4807 1.36442 18.7729 2.17761 18.7729H8.90087C9.71406 18.7729 10.3733 19.4807 10.3733 20.3539V38.1728C10.3733 39.0458 9.71406 39.7536 8.90087 39.7536H2.17763C1.36443 39.7536 0.7052 39.0458 0.7052 38.1728V20.3539Z" fill="#F9FAFA"/>
<path d="M0.7052 20.3539C0.7052 19.4807 1.36442 18.7729 2.17761 18.7729H8.90087C9.71406 18.7729 10.3733 19.4807 10.3733 20.3539V38.1728C10.3733 39.0458 9.71406 39.7536 8.90087 39.7536H2.17763C1.36443 39.7536 0.7052 39.0458 0.7052 38.1728V20.3539Z" fill="#F9FAFA"/>
<path fill-rule="evenodd" clip-rule="evenodd" d="M4.86482 19.5953C4.8648 19.5554 4.89539 19.5231 4.93316 19.5231L5.77518 19.5229C5.81294 19.5229 5.84355 19.5553 5.84357 19.5952L5.84359 19.6194C5.84361 19.6593 5.81302 19.6916 5.77525 19.6916L4.93323 19.6917C4.89547 19.6918 4.86486 19.6594 4.86484 19.6195L4.86482 19.5953Z" fill="#C8C8C8"/>
<path fill-rule="evenodd" clip-rule="evenodd" d="M6.0712 19.6073C6.07118 19.5608 6.10682 19.523 6.15082 19.5229C6.19482 19.5229 6.23051 19.5608 6.23053 19.6073C6.23055 19.6538 6.1949 19.6916 6.1509 19.6917C6.1069 19.6917 6.07122 19.6538 6.0712 19.6073Z" fill="#C8C8C8"/>
<path fill-rule="evenodd" clip-rule="evenodd" d="M9.80518 20.1979V38.2629C9.80169 38.2911 9.79804 38.3196 9.79474 38.348C9.79208 38.3707 9.79231 38.3943 9.78708 38.4164C9.69918 38.7869 9.48863 39.0311 9.14092 39.1313C9.0858 39.1471 9.02878 39.1556 8.97267 39.1673H2.13949C2.12196 39.164 2.10455 39.1598 2.08692 39.1572C1.7192 39.1063 1.46697 38.897 1.33622 38.524C1.28998 38.392 1.28206 38.2534 1.28207 38.1137C1.2825 32.4427 1.28244 26.7718 1.28236 21.1008C1.28236 20.9908 1.28155 20.8806 1.28046 20.7705C1.28029 20.7535 1.27659 20.7366 1.27452 20.7196V20.5225C1.27691 20.4959 1.27998 20.4694 1.28156 20.4427C1.28793 20.3349 1.28461 20.2253 1.30156 20.1194C1.37066 19.6878 1.70215 19.3626 2.10939 19.343C2.41861 19.3281 2.72884 19.337 3.03863 19.338C3.11469 19.3382 3.15412 19.3884 3.15802 19.4719C3.16065 19.5278 3.16118 19.5844 3.17031 19.6392C3.21251 19.8926 3.40959 20.0679 3.65065 20.0682C4.10996 20.0689 4.56929 20.0689 5.02861 20.0689C5.82659 20.069 6.62455 20.0689 7.42253 20.0687C7.44945 20.0687 7.47674 20.0683 7.50323 20.0639C7.75504 20.0215 7.92161 19.8135 7.92571 19.5386C7.92622 19.504 7.92949 19.4693 7.9338 19.435C7.93812 19.4006 7.95441 19.3702 7.9839 19.3572C8.01129 19.345 8.04265 19.3379 8.07229 19.3378C8.32986 19.3363 8.58745 19.3365 8.84502 19.3372C8.93863 19.3375 9.03194 19.3408 9.12425 19.3623C9.48194 19.4454 9.75867 19.7752 9.79671 20.1653C9.79778 20.1763 9.80227 20.187 9.80518 20.1979Z" fill="#E2F6D7"/>
<path d="M1.27391 19.3291H9.80457V39.1618H1.27391V19.3291Z" fill="#F5F5F5"/>
<path d="M1.29666 19.3345H9.80457V39.3139H1.29666V19.3345Z" fill="url(#paint5_linear_162_1697)"/>
</g>
<defs>
<linearGradient id="paint0_linear_162_1697" x1="24.9949" y1="26.5461" x2="24.9956" y2="42.6636" gradientUnits="userSpaceOnUse">
<stop offset="0.474551" stop-color="#D4D4D4"/>
<stop offset="1" stop-color="#B4B4B4"/>
</linearGradient>
<radialGradient id="paint1_radial_162_1697" cx="0" cy="0" r="1" gradientUnits="userSpaceOnUse" gradientTransform="translate(25 30.7241) rotate(90) scale(28.5219 85.7888)">
<stop stop-color="#DBDBDB"/>
<stop offset="1" stop-color="white" stop-opacity="0"/>
</radialGradient>
<linearGradient id="paint2_linear_162_1697" x1="25" y1="0.000120671" x2="25" y2="39.8517" gradientUnits="userSpaceOnUse">
<stop stop-color="white" stop-opacity="0"/>
<stop offset="0.541436" stop-color="white"/>
<stop offset="1" stop-color="white" stop-opacity="0"/>
</linearGradient>
<linearGradient id="paint3_linear_162_1697" x1="25" y1="0.00011954" x2="24.9998" y2="27.893" gradientUnits="userSpaceOnUse">
<stop stop-color="#D7D7D7"/>
<stop offset="1" stop-color="white" stop-opacity="0"/>
</linearGradient>
<linearGradient id="paint4_linear_162_1697" x1="60.098" y1="-17.3618" x2="-11.0822" y2="16.5381" gradientUnits="userSpaceOnUse">
<stop stop-color="#0063F7"/>
<stop offset="1" stop-color="#9DBFF9"/>
</linearGradient>
<linearGradient id="paint5_linear_162_1697" x1="11.5686" y1="15.5786" x2="-2.44176" y2="40.6571" gradientUnits="userSpaceOnUse">
<stop stop-color="#0063F7"/>
<stop offset="1" stop-color="#9DBFF9"/>
</linearGradient>
<clipPath id="clip0_162_1697">
<rect width="50" height="40" fill="white"/>
</clipPath>
</defs>
</svg>
