<svg width="54" height="50" viewBox="0 0 54 50" fill="none" xmlns="http://www.w3.org/2000/svg">
<rect width="53.731" height="50.0006" rx="16" fill="#FF8A00"/>
<path d="M41.9137 24.595C41.87 24.4963 40.8112 22.1475 38.4575 19.7937C35.3212 16.6575 31.36 15 27 15C22.64 15 18.6787 16.6575 15.5425 19.7937C13.1887 22.1475 12.125 24.5 12.0862 24.595C12.0294 24.7229 12 24.8613 12 25.0012C12 25.1412 12.0294 25.2796 12.0862 25.4075C12.13 25.5062 13.1887 27.8538 15.5425 30.2075C18.6787 33.3425 22.64 35 27 35C31.36 35 35.3212 33.3425 38.4575 30.2075C40.8112 27.8538 41.87 25.5062 41.9137 25.4075C41.9706 25.2796 42 25.1412 42 25.0012C42 24.8613 41.9706 24.7229 41.9137 24.595ZM27 33C23.1525 33 19.7912 31.6012 17.0087 28.8438C15.867 27.7084 14.8957 26.4137 14.125 25C14.8955 23.5862 15.8669 22.2915 17.0087 21.1562C19.7912 18.3988 23.1525 17 27 17C30.8475 17 34.2087 18.3988 36.9912 21.1562C38.1352 22.2912 39.1086 23.5859 39.8812 25C38.98 26.6825 35.0537 33 27 33ZM27 19C25.8133 19 24.6533 19.3519 23.6666 20.0112C22.6799 20.6705 21.9108 21.6075 21.4567 22.7039C21.0026 23.8003 20.8838 25.0067 21.1153 26.1705C21.3468 27.3344 21.9182 28.4035 22.7573 29.2426C23.5965 30.0818 24.6656 30.6532 25.8294 30.8847C26.9933 31.1162 28.1997 30.9974 29.2961 30.5433C30.3924 30.0892 31.3295 29.3201 31.9888 28.3334C32.6481 27.3467 33 26.1867 33 25C32.9983 23.4092 32.3657 21.884 31.2408 20.7592C30.1159 19.6343 28.5908 19.0017 27 19ZM27 29C26.2089 29 25.4355 28.7654 24.7777 28.3259C24.1199 27.8864 23.6072 27.2616 23.3045 26.5307C23.0017 25.7998 22.9225 24.9956 23.0768 24.2196C23.2312 23.4437 23.6122 22.731 24.1716 22.1716C24.731 21.6122 25.4437 21.2312 26.2196 21.0769C26.9956 20.9225 27.7998 21.0017 28.5307 21.3045C29.2616 21.6072 29.8863 22.1199 30.3259 22.7777C30.7654 23.4355 31 24.2089 31 25C31 26.0609 30.5786 27.0783 29.8284 27.8284C29.0783 28.5786 28.0609 29 27 29Z" fill="black"/>
</svg>
