<svg width="50" height="40" viewBox="0 0 50 40" fill="none" xmlns="http://www.w3.org/2000/svg">
<g clip-path="url(#clip0_166_1909)">
<path d="M35.3172 19.3963L41.0461 17.5168C41.7479 17.2866 42.4898 17.3354 43.1193 17.5995C43.7493 17.8639 44.2682 18.3444 44.524 18.9771L46.7614 24.5072C47.0163 25.1386 46.9616 25.8059 46.6686 26.3724C46.3754 26.9395 45.8419 27.4067 45.1391 27.6373L41.4065 28.8618H46.9784C47.7779 28.8618 48.5044 29.156 49.0307 29.6299C49.5568 30.1037 49.8835 30.7579 49.8835 31.4779V37.3615C49.8835 38.0817 49.5568 38.7357 49.0307 39.2096C48.5044 39.6836 47.7779 39.9778 46.9784 39.9778H10.4611C9.66164 39.9778 8.93499 39.6836 8.4089 39.2096C8.07969 38.9133 7.82864 38.5462 7.68664 38.1368C7.66357 38.1171 7.64355 38.0951 7.62697 38.0712L2.3762 37.2434C1.64193 37.1271 1.02699 36.7512 0.628028 36.2392C0.228301 35.7265 0.0443535 35.0771 0.173021 34.4153C2.62762 23.805 4.18783 12.7089 6.47069 2.01896C6.60029 1.3586 7.01738 0.805349 7.58562 0.446243C8.15499 0.0862785 8.87611 -0.0791984 9.61113 0.0364982L16.0472 1.05116C16.7824 1.16703 17.3983 1.54313 17.7978 2.05569C18.0614 2.39386 18.2313 2.79141 18.2793 3.21301L18.3237 3.14348C18.6972 2.55985 19.3003 2.16727 19.9711 2.00488C20.6413 1.8425 21.3811 1.90979 22.0284 2.24572L27.6979 5.18706C28.3414 5.5235 28.7747 6.06473 28.9544 6.66622C29.134 7.26787 29.0602 7.93167 28.6902 8.51342L26.4233 12.0568L31.0933 8.52354C31.6651 8.09114 32.3807 7.90834 33.0728 7.96258C33.7654 8.01665 34.4358 8.3081 34.917 8.82377L39.1058 13.3138C39.1163 13.3237 39.1258 13.3339 39.1344 13.3445C39.6042 13.8567 39.8023 14.4943 39.7428 15.1112C39.6837 15.7247 39.3684 16.3193 38.8114 16.7512C38.7986 16.7632 38.7851 16.7739 38.7707 16.7835L35.3172 19.3963ZM39.1851 28.8618L44.8516 27.0027C44.8689 26.9956 44.8865 26.9897 44.9049 26.9851C45.3958 26.8172 45.7695 26.485 45.9777 26.0827C46.1858 25.6802 46.2279 25.2086 46.0549 24.7617C46.0472 24.7464 46.0407 24.7305 46.0358 24.7139L43.8093 19.2104C43.6261 18.7575 43.2521 18.4125 42.7977 18.2218C42.3433 18.0311 41.8089 17.9954 41.3054 18.1605L33.6165 20.683L22.8061 28.8618H39.1851ZM14.7961 28.8618L24.6758 13.4187C24.6842 13.4031 24.694 13.3879 24.7049 13.3735L28.0286 8.17818C28.2961 7.76002 28.3488 7.2799 28.2186 6.84337C28.0886 6.40754 27.7758 6.0165 27.3123 5.77583L21.6502 2.83845C21.1859 2.59745 20.6525 2.54988 20.1676 2.66731C19.6836 2.78454 19.2492 3.06624 18.9819 3.48404L18.232 4.65629C18.1941 4.71585 18.139 4.76117 18.0759 4.79018L13.3964 28.8618H14.7961Z" fill="url(#paint0_linear_166_1909)"/>
</g>
<defs>
<linearGradient id="paint0_linear_166_1909" x1="49.7675" y1="-1.55417e-06" x2="-6.83142" y2="20.4313" gradientUnits="userSpaceOnUse">
<stop stop-color="#0063F7"/>
<stop offset="1" stop-color="#9DBFF9"/>
</linearGradient>
<clipPath id="clip0_166_1909">
<rect width="50" height="40" fill="white"/>
</clipPath>
</defs>
</svg>
