<svg width="60" height="72" viewBox="0 0 60 72" fill="none" xmlns="http://www.w3.org/2000/svg">
<path d="M31.8799 32.8238H30.3349V26.8525C30.3349 19.0554 24.2961 12.6895 16.8996 12.6895C9.50308 12.6895 3.46417 19.0554 3.46417 26.8525V32.8238H1.91935C0.889441 32.8238 0 33.7121 0 34.847V55.0801C0 56.1656 0.842647 57.1033 1.91935 57.1033H31.8799C32.9096 57.1033 33.7991 56.215 33.7991 55.0801V34.847C33.7991 33.7615 32.9565 32.8238 31.8799 32.8238ZM8.89452 26.8525C8.89452 22.2138 12.4991 18.4139 16.8996 18.4139C21.3 18.4139 24.9047 22.2138 24.9047 26.8525V32.8238H8.89452V26.8525ZM18.8657 45.7532V50.0464C18.8657 51.1813 17.9762 52.119 16.8996 52.119C15.823 52.119 14.9335 51.1813 14.9335 50.0464V45.7532C14.0439 45.1115 13.4353 43.9766 13.4353 42.7427C13.4353 40.7195 14.9804 39.0911 16.8996 39.0911C18.8188 39.0911 20.3638 40.7195 20.3638 42.7427C20.3638 44.0257 19.7552 45.1115 18.8657 45.7532Z" fill="url(#paint0_linear_166_1914)"/>
<defs>
<linearGradient id="paint0_linear_166_1914" x1="33.7991" y1="12.6895" x2="-7.31594" y2="21.0646" gradientUnits="userSpaceOnUse">
<stop stop-color="#0063F7"/>
<stop offset="1" stop-color="#9DBFF9"/>
</linearGradient>
</defs>
</svg>
