<svg width="279" height="139" viewBox="0 0 279 139" fill="none" xmlns="http://www.w3.org/2000/svg">
<path d="M150.823 26.808L153.483 26.8544L160.709 19.6542L161.057 16.6031C155.315 11.5134 147.758 8.41602 139.488 8.41602C124.515 8.41602 111.877 18.5677 108.133 32.3194C108.924 31.7703 110.61 32.1804 110.61 32.1804L125.052 29.8127C125.052 29.8127 125.796 28.5849 126.168 28.6614C129.269 25.282 133.546 23.2086 138.128 22.8642C142.71 22.5198 147.249 23.9303 150.823 26.808Z" fill="#EA4335"/>
<path d="M170.888 32.3456C169.227 26.259 165.821 20.7874 161.085 16.6016L150.851 26.7995C152.951 28.4816 154.646 30.6116 155.811 33.0329C156.976 35.4541 157.581 38.1048 157.582 40.7899V42.5899C162.562 42.5899 166.603 46.6279 166.603 51.5786C166.603 56.5293 162.55 60.5673 157.582 60.5673H139.535L137.728 62.3743V73.1653L139.535 74.9561H157.582C163.797 74.9396 169.752 72.471 174.146 68.0904C178.539 63.7098 181.012 57.7738 181.025 51.5809C181.015 43.6208 176.988 36.5689 170.864 32.3456H170.888Z" fill="#0063F7"/>
<path d="M121.444 74.9724H139.486V60.5812H121.444C120.163 60.5818 118.896 60.3077 117.731 59.7773L115.127 60.572L107.901 67.7722L107.269 70.2047C111.334 73.3151 116.321 74.9936 121.446 74.977L121.444 74.9724Z" fill="#34A853"/>
<path d="M121.444 28.2051C115.223 28.2149 109.259 30.6817 104.86 35.065C100.461 39.4484 97.9853 45.3906 97.9755 51.5895C97.9755 55.1992 98.8152 58.7597 100.429 61.9914C102.043 65.2232 104.386 68.0383 107.276 70.2155L117.738 59.7905C116.153 59.08 114.808 57.9285 113.864 56.4745C112.921 55.0204 112.419 53.3257 112.418 51.5941C112.418 46.6318 116.471 42.6055 121.439 42.6055C123.177 42.6085 124.876 43.11 126.335 44.05C127.794 44.9899 128.95 46.3286 129.665 47.906L140.128 37.481C135.836 31.8515 129.061 28.2143 121.435 28.2143L121.444 28.2051Z" fill="#FAFF00"/>
<path d="M27.9 120.321C22.971 120.321 18.7395 118.584 15.173 115.109C11.6064 111.634 9.82545 107.454 9.82545 102.58C9.82545 97.7058 11.6041 93.5266 15.173 90.0516C18.7418 86.5766 22.978 84.8368 27.9 84.8368C30.1579 84.804 32.3998 85.2194 34.495 86.0586C36.5903 86.8978 38.4969 88.1442 40.1039 89.7249L36.6699 93.1466C34.32 90.8825 31.1662 89.6374 27.8977 89.6832C24.3404 89.6832 21.3179 90.9342 18.8395 93.4524C17.6338 94.6455 16.6831 96.0695 16.045 97.6387C15.4068 99.2079 15.0944 100.89 15.1265 102.582C15.1265 106.164 16.3587 109.201 18.8395 111.71C20.0053 112.929 21.4123 113.893 22.9716 114.542C24.5308 115.191 26.2082 115.51 27.8977 115.479C31.52 115.479 34.5123 114.321 36.8954 111.926C38.2904 110.536 39.2204 108.451 39.5459 105.821H27.907V100.975H44.2843C44.4587 101.836 44.5168 102.828 44.5168 103.986C44.5168 108.749 43.1148 112.526 40.3016 115.326C37.1117 118.651 32.9778 120.307 27.8744 120.307L27.9 120.321ZM65.9603 117.078C63.7283 119.255 61.008 120.321 57.7949 120.321C54.5817 120.321 51.8568 119.232 49.6295 117.078C47.4021 114.923 46.2861 112.183 46.2861 108.923C46.2861 105.664 47.4021 102.946 49.6295 100.768C51.8568 98.5908 54.5817 97.5251 57.7949 97.5251C61.008 97.5251 63.7329 98.614 65.9603 100.768C68.1876 102.923 69.3036 105.671 69.3036 108.923C69.3036 112.176 68.1876 114.9 65.9603 117.078ZM53.2332 113.881C53.8132 114.509 54.5192 115.009 55.3055 115.347C56.0917 115.686 56.9406 115.857 57.7972 115.848C59.5642 115.848 61.0847 115.194 62.3612 113.878C63.6376 112.563 64.2723 110.913 64.2723 108.921C64.2723 106.905 63.6446 105.242 62.3821 103.94C61.1196 102.638 59.5967 101.994 57.7972 101.994C56.9389 101.981 56.0873 102.147 55.2976 102.482C54.5079 102.818 53.7975 103.314 53.2123 103.94C51.9498 105.237 51.3221 106.896 51.3221 108.921C51.3221 110.909 51.9568 112.565 53.2332 113.878V113.881ZM91.0679 117.078C88.8359 119.255 86.1157 120.321 82.9025 120.321C79.6894 120.321 76.9645 119.232 74.7371 117.078C72.5098 114.923 71.3938 112.183 71.3938 108.923C71.3938 105.664 72.5098 102.946 74.7371 100.768C76.9645 98.5908 79.6894 97.5251 82.9025 97.5251C86.1157 97.5251 88.8406 98.614 91.0679 100.768C93.2953 102.923 94.4113 105.671 94.4113 108.923C94.4113 112.176 93.2953 114.9 91.0679 117.078ZM78.3409 113.881C78.9209 114.509 79.6269 115.009 80.4132 115.347C81.1994 115.686 82.0483 115.857 82.9049 115.848C84.6719 115.848 86.1924 115.194 87.4688 113.878C88.7452 112.563 89.38 110.913 89.38 108.921C89.38 106.905 88.7522 105.242 87.4897 103.94C86.2273 102.638 84.7044 101.994 82.9049 101.994C82.0466 101.981 81.195 102.147 80.4053 102.482C79.6155 102.818 78.9051 103.314 78.32 103.94C77.0575 105.237 76.4297 106.896 76.4297 108.921C76.4297 110.909 77.0644 112.565 78.3409 113.878V113.881ZM107.573 130.607C105.027 130.607 102.884 129.926 101.147 128.568C99.41 127.211 98.1661 125.64 97.4128 123.847L101.802 122.033C102.263 123.131 102.965 124.083 103.972 124.892C104.978 125.7 106.157 126.101 107.58 126.101C109.491 126.101 110.993 125.522 112.074 124.371C113.155 123.219 113.702 121.554 113.702 119.39V117.768H113.527C112.132 119.499 110.093 120.367 107.492 120.367C104.567 120.367 102.005 119.255 99.8029 117.036C98.7334 115.987 97.8892 114.732 97.3217 113.348C96.7541 111.963 96.475 110.479 96.5015 108.983C96.4746 107.479 96.7532 105.984 97.3205 104.59C97.8879 103.195 98.7323 101.929 99.8029 100.868C102 98.6371 104.569 97.5159 107.492 97.5159C108.794 97.5159 109.975 97.7591 111.03 98.2526C112.086 98.746 112.921 99.3507 113.527 100.067H113.702V98.2271H118.482V118.746C118.482 122.73 117.464 125.705 115.418 127.688C113.372 129.657 110.763 130.653 107.575 130.653L107.573 130.607ZM107.922 115.845C108.751 115.86 109.572 115.691 110.328 115.351C111.083 115.011 111.754 114.508 112.291 113.878C113.462 112.565 114.048 110.929 114.048 108.963C114.048 106.975 113.462 105.311 112.291 103.982C111.757 103.347 111.088 102.839 110.332 102.496C109.576 102.152 108.753 101.98 107.922 101.994C106.155 101.994 104.648 102.661 103.407 103.982C102.165 105.302 101.537 106.966 101.537 108.963C101.537 110.922 102.158 112.565 103.407 113.878C104.655 115.192 106.157 115.845 107.922 115.845ZM126.991 86.0414V119.633H121.953V86.0414H126.991ZM140.802 120.319C137.556 120.319 134.85 119.221 132.678 117.029C130.507 114.838 129.419 112.127 129.419 108.893C129.419 105.548 130.465 102.8 132.567 100.669C133.553 99.635 134.743 98.8162 136.063 98.2643C137.383 97.7125 138.804 97.4394 140.235 97.4626C141.623 97.4626 142.915 97.7128 144.101 98.2201C145.204 98.6703 146.207 99.3314 147.054 100.166C147.76 100.867 148.387 101.643 148.923 102.48C149.366 103.196 149.744 103.95 150.053 104.732L150.576 106.03L135.245 112.359C136.408 114.666 138.268 115.822 140.807 115.822C143.122 115.822 145.008 114.773 146.452 112.665L150.358 115.264C149.486 116.561 148.258 117.731 146.666 118.769C145.073 119.807 143.113 120.321 140.797 120.321L140.802 120.319ZM134.418 108.55L144.648 104.311C144.355 103.588 143.825 103.004 143.02 102.559C142.211 102.108 141.297 101.878 140.37 101.892C138.891 101.892 137.51 102.494 136.224 103.706C134.938 104.918 134.318 106.537 134.376 108.552L134.418 108.55ZM177.035 120.319C172.455 120.319 168.618 118.776 165.521 115.685C162.425 112.595 160.871 108.747 160.871 104.13C160.871 99.5128 162.42 95.6602 165.521 92.5744C168.623 89.4886 172.457 87.9411 177.035 87.9411C181.724 87.9411 185.535 89.6323 188.458 93.003L185.679 95.6903C183.587 93.0632 180.68 91.752 177.03 91.752C173.636 91.752 170.785 92.8918 168.428 95.1737C166.07 97.4556 164.931 100.437 164.931 104.13C164.931 107.823 166.093 110.811 168.428 113.095C170.762 115.38 173.619 116.517 177.03 116.517C180.764 116.517 183.952 115.016 186.563 112.018L189.341 114.787C187.885 116.518 186.058 117.901 183.994 118.834C181.804 119.837 179.419 120.345 177.009 120.321L177.035 120.319ZM196.928 119.633H192.929V88.643H196.928V119.633ZM203.444 100.961C205.502 98.8132 208.094 97.7336 211.308 97.7336C214.521 97.7336 217.113 98.8109 219.171 100.961C221.228 103.111 222.256 105.826 222.256 109.034C222.256 112.243 221.233 114.958 219.171 117.108C217.109 119.258 214.521 120.335 211.308 120.335C208.094 120.335 205.502 119.258 203.444 117.108C201.387 114.958 200.359 112.243 200.359 109.034C200.359 105.826 201.382 103.111 203.444 100.961ZM206.42 114.59C207.815 115.987 209.429 116.689 211.303 116.689C213.177 116.689 214.79 115.987 216.185 114.59C217.58 113.193 218.25 111.335 218.25 109.03C218.25 106.725 217.56 104.864 216.185 103.47C214.811 102.075 213.177 101.371 211.303 101.371C209.429 101.371 207.815 102.073 206.42 103.47C205.025 104.867 204.356 106.725 204.356 109.03C204.356 111.335 205.046 113.195 206.42 114.59ZM244.364 119.633H240.54V116.691H240.365C239.761 117.699 238.831 118.56 237.587 119.239C236.343 119.918 235.03 120.305 233.635 120.305C230.968 120.305 228.952 119.499 227.578 117.879C226.204 116.26 225.513 114.096 225.513 111.386V98.3985H229.512V110.732C229.512 114.689 231.263 116.663 234.767 116.663C235.551 116.68 236.328 116.508 237.031 116.162C237.735 115.816 238.344 115.306 238.808 114.675C239.841 113.369 240.393 111.749 240.37 110.086V98.3985H244.369V119.612L244.364 119.633ZM257.915 120.321C255.164 120.321 252.786 119.237 250.791 117.073C248.796 114.909 247.796 112.227 247.796 109.02C247.796 105.814 248.796 103.131 250.791 100.968C252.786 98.8039 255.166 97.7197 257.915 97.7197C259.533 97.7197 260.993 98.0672 262.286 98.7553C263.578 99.4433 264.541 100.312 265.176 101.355H265.35L265.176 98.4124V88.6361H269.175V119.633H265.35V116.691H265.176C264.541 117.726 263.578 118.595 262.286 119.29C260.995 119.971 259.535 120.321 257.915 120.321ZM258.566 116.684C259.468 116.696 260.363 116.517 261.19 116.159C262.018 115.801 262.76 115.271 263.367 114.606C264.685 113.223 265.343 111.358 265.343 109.046C265.343 106.734 264.687 104.846 263.367 103.486C262.76 102.82 262.018 102.291 261.19 101.933C260.363 101.575 259.468 101.396 258.566 101.408C256.71 101.408 255.118 102.11 253.785 103.507C252.453 104.904 251.791 106.762 251.791 109.067C251.791 111.372 252.453 113.232 253.785 114.627C254.387 115.295 255.125 115.827 255.949 116.189C256.773 116.551 257.665 116.734 258.566 116.726V116.684Z" fill="#5F6368"/>
</svg>
