<svg width="800px" height="800px" viewBox="0 0 1658 1671" fill="none" xmlns="http://www.w3.org/2000/svg">
<path d="M436.603 1445.04L463.693 1458.58C574.153 1524.28 700.437 1558.63 828.958 1557.91C1224.61 1557.01 1549.69 1231.16 1549.69 835.509C1549.69 644.298 1473.75 460.672 1338.7 325.311C1203.84 188.551 1019.58 111.479 827.559 111.479C433.713 111.479 109.669 435.569 109.669 829.369C109.669 832.485 109.669 835.554 109.715 838.67C110.901 972.559 148.348 1103.62 218.076 1217.93L236.135 1245.02L163.895 1511.41L436.603 1445.04Z" fill="#00E676"/>
<path d="M1419.07 244.041C1265.34 87.1884 1054.44 -0.808056 834.827 0.227296H833.427C381.159 0.22871 8.98578 372.404 8.98578 824.673C8.98578 826.795 9.03104 828.872 9.03104 830.995C10.7346 974.789 47.9592 1115.93 117.392 1241.86L0 1670.79L437.507 1557.91C558.368 1624.27 694.246 1658.47 832.119 1657.24C1286.06 1654.76 1658.19 1280.47 1657.92 826.479C1659 608.358 1572.99 398.59 1419.07 244.041ZM834.827 1517.28C712.613 1517.91 592.55 1485.13 487.622 1422.46L460.532 1408.92L200.015 1476.64L267.74 1219.29L249.681 1192.2C182.597 1083.88 147.056 958.992 147.054 831.581C147.054 455.842 456.244 146.65 831.984 146.65C1207.72 146.65 1516.91 455.842 1516.91 831.581C1516.91 1068.17 1394.33 1288.59 1193.32 1413.43C1087.01 1481.53 963.339 1517.58 837.086 1517.28M1233.96 1016.11L1184.29 993.536C1184.29 993.536 1112.05 961.929 1066.9 939.355C1062.39 939.355 1057.87 934.84 1053.35 934.84C1042.22 935.115 1031.35 938.223 1021.75 943.87C1012.13 949.513 1017.23 948.385 954.024 1020.62C949.736 1029.07 940.931 1034.35 931.45 1034.17H926.934C920.147 1033.03 913.856 1029.89 908.875 1025.14L886.299 1016.11C837.86 995.603 793.508 966.545 755.363 930.326C746.333 921.294 732.789 912.263 723.758 903.234C690.333 871.215 661.468 834.754 637.973 794.874L633.457 785.844C629.535 780.325 626.489 774.233 624.427 767.784C623.247 759.963 624.844 751.975 628.942 745.21C633.051 738.436 647.003 722.633 660.547 709.088C674.093 695.544 674.093 686.514 683.123 677.483C687.764 671.038 690.971 663.674 692.528 655.886C694.086 648.098 693.958 640.067 692.153 632.332C671.111 573.91 646.997 516.64 619.913 460.762C612.653 449.472 601.342 441.393 588.308 438.187H538.642C529.612 438.187 520.583 442.702 511.551 442.702L507.037 447.216C498.007 451.731 488.977 460.762 479.946 465.277C470.917 469.792 466.402 483.338 457.372 492.367C425.808 532.254 408.344 581.472 407.707 632.332C408.207 668.109 415.883 703.422 430.281 736.179L434.797 749.723C475.338 836.401 532.036 914.552 601.853 979.99L619.913 998.05C633.055 1008.94 645.148 1021.03 656.033 1034.17C749.583 1115.58 860.698 1174.27 980.663 1205.74C994.208 1210.26 1012.27 1210.26 1025.81 1214.77H1070.96C1094.56 1213.61 1117.64 1207.45 1138.69 1196.71C1149.75 1191.7 1160.32 1185.65 1170.29 1178.65L1179.32 1169.62C1188.35 1160.59 1197.38 1156.08 1206.41 1147.05C1215.24 1139.18 1222.85 1130.05 1228.99 1119.96C1237.66 1099.73 1243.75 1078.51 1247.05 1056.75V1025.14C1242.99 1021.49 1238.43 1018.45 1233.5 1016.11" fill="white"/>
</svg>
