<svg width="202" height="140" viewBox="0 0 202 140" fill="none" xmlns="http://www.w3.org/2000/svg">
<path d="M201.007 65.0526C200.712 28.9997 156.058 1.17855e-05 101.204 1.17855e-05H99.9016C82.1445 -0.00723507 64.5449 3.32761 48.0216 9.83043C20.2506 20.9142 1.32711 40.575 0 63.1111C0 63.7503 0 64.3647 0 64.9792C0 65.5932 0 65.5442 0 65.8145V66.1096C0 66.2815 0 66.478 0 66.6503V69.6484C0 69.6484 0 69.8944 0 70.0415V70.4841C0 71.0001 0 71.5161 0 72.0077C0 72.4993 0 72.9415 0 73.3841C1.08135 91.3492 10.8134 107.643 27.648 119.563C45.957 132.514 70.7791 139.223 99.4837 139.223H101.032C130.523 138.977 155.837 131.728 174.195 118.26C191.644 105.431 201.228 87.8347 201.032 68.7145L201.007 65.0526Z" fill="#2D3277"/>
<path d="M90.6137 93.0941C91.5126 92.7188 92.4677 92.4949 93.44 92.4306C94.5035 92.2341 95.5974 92.274 96.6442 92.5474C97.6909 92.8207 98.6643 93.3211 99.4959 94.0132C100.327 94.7052 100.997 95.5713 101.456 96.5508C101.915 97.5303 102.153 98.5991 102.153 99.6808C102.153 100.763 101.915 101.831 101.456 102.811C100.997 103.79 100.327 104.656 99.4959 105.348C98.6643 106.04 97.6909 106.541 96.6442 106.814C95.5974 107.087 94.5035 107.127 93.44 106.931C91.5822 106.945 89.7913 106.239 88.4438 104.96C87.0962 103.681 86.297 101.93 86.2145 100.074C86.2145 98.4272 85.2559 98.1816 84.74 98.1816C84.4795 98.1983 84.2255 98.2679 83.9932 98.3862C83.7609 98.5044 83.5548 98.6691 83.3883 98.8698C82.516 99.8052 81.3217 100.376 80.046 100.467C79.2502 100.465 78.4635 100.298 77.7358 99.9755C76.4939 99.6462 75.4149 98.8755 74.7004 97.8082C73.9856 96.7405 73.6844 95.4493 73.8529 94.1755C73.9175 93.9242 73.9202 93.6607 73.8601 93.4082C73.8 93.1553 73.6795 92.9211 73.5088 92.7257C73.2803 92.5219 72.9993 92.3854 72.6977 92.3325C72.465 92.3044 72.2293 92.3249 72.0054 92.3926C71.781 92.4603 71.5734 92.5736 71.3951 92.7257C70.3757 93.5979 69.1331 94.1683 67.8069 94.3725C67.1628 94.3512 66.5251 94.2352 65.9148 94.0284C64.1628 93.4766 62.6745 92.301 61.732 90.7242C60.7897 89.1477 60.4589 87.2801 60.8027 85.4759C60.8761 85.2223 60.8704 84.9531 60.7871 84.7029C60.7038 84.4527 60.5464 84.2337 60.3358 84.0751C59.697 83.6816 59.0825 84.2717 58.6894 84.6648C58.2441 85.1017 57.7049 85.431 57.1126 85.6268C56.5205 85.823 55.8913 85.8804 55.2734 85.7953C53.7947 85.6892 52.4065 85.0455 51.3696 83.9861C50.3327 82.9268 49.7194 81.5249 49.6452 80.0443C49.6388 79.3215 49.7749 78.6044 50.0456 77.934C50.3163 77.2637 50.7163 76.653 51.2228 76.1375C51.7297 75.6215 52.3327 75.2108 52.9981 74.9279C53.6639 74.6454 54.3783 74.4968 55.1011 74.4903C56.3684 74.3279 57.6498 74.6504 58.689 75.3933C59.7285 76.1363 60.4483 77.2447 60.7046 78.496C60.7046 78.496 60.7046 78.7173 60.7046 78.8401C60.7046 78.9629 60.8521 79.9462 61.4171 80.1181C61.9825 80.2903 62.4494 79.7249 62.7198 79.307C62.7707 79.2074 62.8373 79.1162 62.9164 79.0367L63.0886 78.8158C63.7745 77.8264 64.7205 77.0462 65.8221 76.5607C66.9236 76.0747 68.1377 75.9029 69.3308 76.0633C70.162 76.0827 70.9879 76.2067 71.7882 76.4318C72.9533 76.8466 73.9506 77.6302 74.6293 78.6637C75.308 79.6975 75.6308 80.9242 75.5483 82.158C75.5419 82.5188 75.6772 82.8679 75.9255 83.1299C76.1738 83.3918 76.5149 83.5458 76.8757 83.5588C77.0978 83.5424 77.3145 83.482 77.5126 83.3804C77.7111 83.2793 77.8871 83.1394 78.0308 82.969C78.5514 82.3264 79.1962 81.7949 79.9267 81.4067C80.6571 81.0181 81.4582 80.7804 82.2822 80.7082C83.3594 80.7169 84.4225 80.9515 85.4035 81.396C90.6871 83.6078 88.3035 90.3664 88.2788 90.4401C87.9594 91.2265 87.4434 92.5538 88.5491 93.2664L88.7704 93.3892H89.2126C89.6194 93.3561 90.0179 93.2565 90.3925 93.0941H90.6137Z" fill="white"/>
<path d="M195.551 57.2623C181.438 60.5551 167.664 65.1627 154.411 71.0247C144.9 62.8654 122.904 43.9912 116.957 39.6904C114.574 37.73 111.872 36.1923 108.97 35.1437C107.674 34.7375 106.322 34.5385 104.964 34.5539C103.291 34.6082 101.636 34.9062 100.049 35.4387C95.8119 37.2166 91.9131 39.7106 88.5226 42.8114L88.3013 42.9836C84.9343 45.7114 81.4693 48.5133 78.9134 49.103C77.7781 49.3749 76.6153 49.5152 75.448 49.5209C73.2575 49.6901 71.0811 49.0521 69.3286 47.7266C69.3982 47.5749 69.4891 47.4342 69.599 47.3087L77.8811 38.2159C84.2956 31.7031 90.3412 25.5591 104.35 25.1167H105.038C111.424 25.2959 117.713 26.7324 123.544 29.3438C131.601 33.2585 140.439 35.3001 149.398 35.3158C158.994 35.0893 168.427 32.7835 177.045 28.5574C186.581 36.7903 193.217 46.5714 195.551 57.2623Z" fill="white"/>
<path d="M99.9509 4.47302H101.204C114.447 4.4345 127.632 6.23762 140.378 9.83059L141.214 10.0763L142.934 10.617C153.43 13.8412 163.344 18.7195 172.303 25.0677C165.019 28.3345 157.157 30.1142 149.176 30.3024H148.857C140.778 30.2474 132.815 28.3743 125.559 24.822C119.112 21.9414 112.168 20.3389 105.112 20.1034H104.03C95.4817 20.0493 87.1942 23.047 80.6585 28.5575C76.7216 28.8139 72.8326 29.5652 69.0831 30.7939C66.52 31.6771 63.8504 32.2144 61.1451 32.3914H58.3926H57.9257C48.2402 30.7723 38.7284 28.2462 29.5159 24.8465C47.6531 11.9933 73.2121 4.62047 99.9509 4.47302Z" fill="#FFD100"/>
<path d="M24.9681 28.2869C37.6985 33.3741 52.444 36.9868 56.917 37.2325H57.8999C58.9322 37.2325 59.9889 37.2325 61.0456 37.3554C64.2338 37.184 67.3836 36.5805 70.4091 35.5614C71.6627 35.1927 72.8669 34.8487 74.1201 34.5292L73.9482 34.7258L65.5433 43.9665C64.8189 44.6346 64.3121 45.505 64.0885 46.4646C63.8649 47.4243 63.9349 48.4293 64.2897 49.3487C64.8208 50.481 65.676 51.4304 66.7475 52.0764C69.6049 53.6947 72.8532 54.4939 76.1353 54.3867C77.3923 54.3894 78.6456 54.2495 79.871 53.9688C83.5326 53.1088 87.2437 50.0859 91.2988 46.8418C94.487 44.0327 98.1372 41.7962 102.088 40.2308C103.043 39.9768 104.024 39.8365 105.012 39.8129H105.749C108.757 40.2973 111.567 41.6175 113.86 43.6224C120.52 48.5377 148.979 73.1137 152.272 75.8168C152.814 76.3312 153.243 76.9533 153.531 77.643C153.819 78.3331 153.959 79.0753 153.943 79.8229C153.887 80.535 153.662 81.2233 153.286 81.8305C152.91 82.4377 152.393 82.9457 151.78 83.3126C150.683 84.0586 149.396 84.4765 148.07 84.5168C146.96 84.5149 145.872 84.2088 144.924 83.632L144.137 82.9438C141.508 80.4864 133.521 73.4331 130.227 70.6559C129.645 70.0225 128.848 69.6282 127.991 69.5499C127.745 69.5472 127.502 69.6012 127.28 69.7076C127.058 69.8141 126.864 69.9704 126.713 70.1643C125.976 71.0981 126.369 72.4008 127.671 73.4822L140.156 85.77C140.962 86.548 141.497 87.5647 141.679 88.67C141.726 89.6073 141.503 90.5381 141.037 91.3525C140.571 92.1666 139.881 92.8309 139.05 93.2659C137.874 94.1199 136.472 94.6073 135.019 94.6666C133.94 94.6674 132.883 94.3605 131.972 93.7818L130.055 91.9389C126.836 88.8176 123.494 85.5982 121.036 83.583C120.441 82.9845 119.662 82.6035 118.824 82.5016C118.592 82.497 118.362 82.543 118.15 82.6366C117.938 82.7301 117.749 82.8685 117.595 83.0423C117.251 83.4354 116.809 84.3202 117.792 85.4997C117.994 85.762 118.216 86.0084 118.455 86.2373L127.548 96.2887C127.992 96.7602 128.257 97.3719 128.297 98.0183C128.338 98.6643 128.151 99.3046 127.77 99.8278L127.499 100.196C127.229 100.491 126.959 100.737 126.713 100.958C125.558 101.821 124.148 102.27 122.707 102.236C122.34 102.275 121.969 102.275 121.601 102.236C120.569 102.064 120.274 101.818 120.176 101.696L119.881 101.4C117.302 98.7062 114.578 96.1548 111.722 93.7575C111.158 93.175 110.412 92.8024 109.608 92.7005C109.37 92.7081 109.136 92.7643 108.92 92.8659C108.705 92.9674 108.512 93.1119 108.355 93.2906C107.593 94.1259 107.937 95.3796 109.215 96.5837L116.071 104.202C115.9 104.473 115.138 105.308 112.508 105.652C112.173 105.677 111.836 105.677 111.5 105.652C109.163 105.523 106.881 104.886 104.816 103.785C105.406 102.324 105.706 100.764 105.7 99.1887C105.668 96.0221 104.398 92.9936 102.161 90.7522C99.9239 88.5107 96.8985 87.2339 93.7319 87.1955C93.8631 85.0415 93.327 82.8997 92.1969 81.0613C91.0665 79.2233 89.3969 77.778 87.4159 76.9229C85.8635 76.2491 84.1927 75.8902 82.5007 75.8662C81.4068 75.8636 80.3193 76.0377 79.2813 76.3822C77.9885 74.2111 75.9414 72.5924 73.5304 71.8358C72.1463 71.327 70.6786 71.0852 69.2049 71.1229C66.9657 71.1111 64.7745 71.77 62.9136 73.0153C61.9558 71.9514 60.7843 71.1016 59.476 70.5213C58.1672 69.9415 56.7509 69.6438 55.3197 69.6483C52.7687 69.6594 50.3144 70.6236 48.4383 72.3518C45.5136 70.2871 35.7324 64.5856 11.181 59.2282C10.0751 58.9822 7.66662 58.3187 5.65137 57.7536C7.71578 47.0384 14.4496 36.8639 24.9681 28.2869Z" fill="white"/>
<path d="M196.386 69.01C196.386 69.8126 196.288 70.632 196.092 71.4674C193.929 85.402 184.467 98.5013 168.861 108.553C150.798 120.325 126.689 126.936 101.007 127.157H99.7045C47.2839 127.157 4.64437 100.123 4.37402 66.5769C4.37402 65.5203 4.37402 64.3404 4.52148 63.0381L9.85449 64.2666C34.0373 69.4279 43.0812 74.8838 45.3421 76.5549C44.9379 77.6819 44.7383 78.872 44.7523 80.0689C44.7717 82.8005 45.8706 85.4131 47.8086 87.3378C49.747 89.2621 52.3676 90.342 55.0991 90.342C55.5653 90.3785 56.0337 90.3785 56.4999 90.342C56.9881 92.2503 57.9417 94.0077 59.2755 95.4576C60.6094 96.907 62.2816 98.0036 64.1429 98.6484C65.9083 99.345 67.8372 99.5157 69.6972 99.1401C70.9817 101.698 73.2121 103.655 75.9147 104.596C77.2307 105.111 78.6307 105.378 80.0436 105.382C80.8809 105.327 81.7071 105.161 82.5011 104.891C83.4809 106.949 85.0231 108.688 86.9501 109.905C88.8767 111.123 91.109 111.771 93.3885 111.772C96.4893 111.723 99.4566 110.502 101.695 108.356C104.655 109.961 107.94 110.877 111.304 111.035C111.823 111.032 112.34 110.991 112.852 110.912C114.201 110.865 115.523 110.527 116.728 109.92C117.933 109.313 118.992 108.453 119.832 107.397L120.053 107.078C120.969 107.312 121.91 107.436 122.855 107.447C125.267 107.366 127.587 106.503 129.466 104.989C131.3 103.708 132.651 101.847 133.3 99.7055H134.897C137.319 99.6503 139.67 98.8808 141.656 97.4937C143.085 96.6572 144.283 95.4777 145.141 94.0614C146 92.6454 146.491 91.0374 146.571 89.3834C147.078 89.4203 147.587 89.4203 148.095 89.3834C150.359 89.3423 152.562 88.642 154.435 87.3682C155.701 86.5747 156.762 85.4929 157.53 84.2119C158.299 82.9305 158.754 81.4857 158.859 79.9956C158.973 78.1746 158.591 76.3568 157.753 74.7362C170.209 69.6229 183.054 65.5138 196.165 62.448C196.165 63.5294 196.362 64.5864 196.362 65.6921C196.362 66.7982 196.46 67.9777 196.386 69.01Z" fill="#FFD100"/>
</svg>
