<svg width="100" height="54" viewBox="0 0 100 54" fill="none" xmlns="http://www.w3.org/2000/svg">
<g clip-path="url(#clip0_166_1912)">
<path d="M20.5388 0C18.8395 5.05158 16.1408 9.5095 12.6844 12.9746C9.22803 16.4396 5.1219 18.8037 0.733781 19.8548C0.578928 19.8987 0.444079 20.0142 0.357656 20.1772C0.271236 20.3401 0.239998 20.5376 0.270529 20.7281C0.301059 20.9187 0.390971 21.0874 0.521312 21.1986C0.651653 21.3097 0.812236 21.3547 0.969207 21.324C2.20405 21.0278 3.42131 20.631 4.61289 20.1367V31.3895H1.92364C1.65331 31.3909 1.39444 31.5231 1.20368 31.757C1.01292 31.991 0.905823 32.3078 0.905823 32.638C0.905823 32.9681 1.01292 33.2847 1.20368 33.5186C1.39444 33.7527 1.65331 33.8848 1.92364 33.8862H21.2101V50.6322H19.7805C19.4357 50.6453 19.1085 50.8217 18.8683 51.1242C18.6282 51.4268 18.4939 51.8316 18.4939 52.2529C18.4939 52.6745 18.6282 53.0793 18.8683 53.3819C19.1085 53.6844 19.4357 53.8608 19.7805 53.8739H25.3072C25.6521 53.8608 25.9792 53.6844 26.2194 53.3819C26.4596 53.0793 26.5939 52.6745 26.5939 52.2529C26.5939 51.8316 26.4596 51.4268 26.2194 51.1242C25.9792 50.8217 25.6521 50.6453 25.3072 50.6322H23.8774V33.8862H76.123V50.6054H74.6892C74.3364 50.6054 73.9984 50.7764 73.7492 51.081C73.4997 51.3855 73.3597 51.7984 73.3597 52.2291C73.3597 52.6597 73.4997 53.0726 73.7492 53.3768C73.9984 53.6814 74.3364 53.8528 74.6892 53.8528H80.22C80.5725 53.8528 80.9105 53.6814 81.16 53.3768C81.4092 53.0726 81.5492 52.6597 81.5492 52.2291C81.5492 51.7984 81.4092 51.3855 81.16 51.081C80.9105 50.7764 80.5725 50.6054 80.22 50.6054H78.7859V33.8862H98.0725C98.3426 33.8848 98.6016 33.7527 98.7925 33.5186C98.983 33.2847 99.0902 32.9681 99.0902 32.638C99.0902 32.3078 98.983 31.991 98.7925 31.757C98.6016 31.5231 98.3426 31.3909 98.0725 31.3895H95.3833V20.1367C96.5761 20.6313 97.7948 21.0281 99.0312 21.324C99.1882 21.3545 99.3485 21.3094 99.479 21.1982C99.6092 21.0871 99.699 20.9183 99.7295 20.7278C99.76 20.5374 99.7285 20.34 99.6423 20.1772C99.5561 20.0143 99.4213 19.8988 99.2666 19.8548C94.8784 18.8037 90.7721 16.4396 87.3157 12.9746C83.8593 9.5095 81.1607 5.05158 79.4613 0H75.5259C73.1964 5.84669 69.5679 10.7755 65.0544 14.2237C60.5407 17.6718 55.3243 19.5004 50.0003 19.5004C44.6764 19.5004 39.4597 17.6718 34.9462 14.2237C30.4325 10.7755 26.8039 5.84669 24.4746 0H20.5388ZM21.2101 1.86284V31.3895H17.6971V8.86254C19.092 6.70831 20.2713 4.35844 21.2101 1.86284ZM23.8774 1.86284C24.7644 3.89226 25.808 5.81399 26.9938 7.60136V31.3895H23.8774V1.86284ZM76.123 1.86284V31.3895H73.0066V7.60136C74.1925 5.81399 75.2357 3.89226 76.123 1.86284ZM78.7859 1.86284C79.7246 4.35844 80.9039 6.70831 82.2987 8.86254V31.3895H78.7859V1.86284ZM27.7305 8.67116C28.7673 10.1164 29.8969 11.4586 31.1084 12.6847V31.3895H27.7305V8.67116ZM72.2702 8.67116V31.3895H68.8921V12.6847C70.1036 11.4586 71.2331 10.1164 72.2702 8.67116ZM16.965 9.95401V31.3895H13.5829V14.0099C14.8012 12.776 15.9326 11.4193 16.965 9.95401ZM83.0354 9.95401C84.0679 11.4193 85.1994 12.776 86.4177 14.0099V31.3895H83.0354V9.95401ZM31.8448 13.4032C32.9187 14.4214 34.0489 15.3481 35.2272 16.1766V31.3895H31.8448V13.4032ZM68.1554 13.4032V31.3895H64.7735V16.1766C65.9515 15.3481 67.0816 14.4214 68.1554 13.4032ZM12.8462 14.7339V31.3895H9.4683V17.4805C10.6467 16.665 11.7756 15.7471 12.8462 14.7339ZM87.1544 14.7339C88.2249 15.7471 89.3538 16.665 90.5321 17.4805V31.3895H87.1544V14.7339ZM35.9593 16.677C37.0531 17.3946 38.1826 18.0275 39.3413 18.572V31.3895H35.9593V16.677ZM64.0367 16.677V31.3895H60.659V18.572C61.8164 18.0273 62.9443 17.3944 64.0367 16.677ZM8.73167 17.9758V31.3895H5.34951V19.8176C6.50866 19.2946 7.63846 18.6793 8.73167 17.9758ZM91.2689 17.9758C92.362 18.6793 93.4918 19.2946 94.6508 19.8176V31.3895H91.2689V17.9758ZM40.078 18.9067C41.1836 19.3873 42.3115 19.7871 43.4561 20.1042V31.3889H40.078V18.9067ZM59.9223 18.9067V31.3889H56.5403V20.1042C57.6862 19.7873 58.8154 19.3875 59.9223 18.9067ZM44.1925 20.2956C45.3098 20.5684 46.439 20.7621 47.5748 20.8759V31.3889H44.1925V20.2956ZM55.8079 20.2956V31.3889H52.4256V20.8759C53.5613 20.7621 54.6905 20.5684 55.8079 20.2956ZM48.3115 20.9396C49.4364 21.0181 50.5639 21.0181 51.6892 20.9396V31.3886H48.3115V20.9396Z" fill="url(#paint0_linear_166_1912)"/>
</g>
<defs>
<linearGradient id="paint0_linear_166_1912" x1="99.6721" y1="-9.80442" x2="2.85473" y2="57.5445" gradientUnits="userSpaceOnUse">
<stop stop-color="#0063F7"/>
<stop offset="1" stop-color="#9DBFF9"/>
</linearGradient>
<clipPath id="clip0_166_1912">
<rect width="100" height="54" fill="white"/>
</clipPath>
</defs>
</svg>
