<svg width="800px" height="800px"  viewBox="0 0 1293 1615" fill="none" xmlns="http://www.w3.org/2000/svg">
<g clip-path="url(#clip0_405_28)">
<path fill-rule="evenodd" clip-rule="evenodd" d="M1154.17 951.298C1196.55 946.105 1214.35 932.298 1213.21 883.627C1212.14 839.232 1208.01 794.963 1200.86 751.133C1180.01 615.515 1114 490.897 1013.51 397.448C903.599 298.268 752.418 241.268 561.107 242.155C505.565 242.739 450.559 231.265 399.885 208.525C349.035 185.153 303.798 151.136 267.234 108.775L207.434 40.3751C186.696 17.0801 157.595 2.9161 126.463 0.96525C95.332 -0.985596 64.6898 9.43463 41.2047 29.9584C17.7196 50.4821 3.29246 79.4483 1.06266 110.554C-1.16713 141.659 8.98092 172.386 29.2985 196.048L89.1942 264.385C148.066 332.321 220.819 386.851 302.551 424.302C384.129 460.833 472.675 479.202 562.057 478.135C690.685 477.565 788.147 512.145 854.821 572.28C922.237 637.906 963.646 725.688 971.413 819.438C985.033 927.105 1053.77 963.363 1154.17 951.077V951.298ZM138.891 663.765C239.298 651.478 308.094 687.642 321.65 795.308C329.409 889.062 370.82 976.846 438.243 1042.47C504.758 1102.63 602.346 1137.21 730.943 1136.68C820.328 1135.57 908.881 1153.94 990.449 1190.51C1072.21 1227.95 1144.98 1282.5 1203.84 1350.49L1263.7 1418.83C1273.93 1430.52 1281.75 1444.11 1286.73 1458.82C1291.7 1473.54 1293.73 1489.09 1292.69 1504.59C1291.66 1520.08 1287.58 1535.23 1280.69 1549.15C1273.8 1563.07 1264.23 1575.5 1252.54 1585.72C1240.84 1595.95 1227.25 1603.77 1212.53 1608.75C1197.81 1613.72 1182.26 1615.75 1166.75 1614.71C1151.25 1613.67 1136.11 1609.59 1122.18 1602.71C1108.26 1595.82 1095.83 1586.25 1085.6 1574.56L1025.73 1506.16C989.158 1463.8 943.91 1429.78 893.051 1406.41C842.405 1383.66 787.416 1372.18 731.893 1372.78C540.582 1373.64 389.37 1316.64 279.556 1217.46C179.066 1124.08 113.042 999.525 92.1716 863.962C85.0722 820.125 80.9242 775.861 79.7553 731.468C78.8051 682.607 96.5109 668.927 138.891 663.765ZM582.898 681.055H710.228C726.882 681.097 742.842 687.73 754.618 699.503C766.394 711.276 773.028 727.232 773.07 743.882V871.182C773.061 887.859 766.438 903.852 754.651 915.654C742.865 927.455 726.878 934.102 710.197 934.135H582.74C566.086 934.093 550.127 927.461 538.351 915.687C526.575 903.914 519.94 887.958 519.899 871.308V744.008C519.907 727.337 526.526 711.348 538.306 699.548C550.086 687.747 566.064 681.097 582.74 681.055H582.898Z" fill="black"/>
</g>
<defs>
<clipPath id="clip0_405_28">
<rect width="1293" height="1615" fill="white"/>
</clipPath>
</defs>
</svg>
