<svg width="164" height="45" viewBox="0 0 164 45" fill="none" xmlns="http://www.w3.org/2000/svg">
<g clip-path="url(#clip0_8_10)">
<path d="M0 13.8363C0 11.7917 1.06172 9.90401 2.7821 8.88966L16.586 0.750659C18.2835 -0.250219 20.3675 -0.250219 22.065 0.750658L35.8689 8.88966C37.5893 9.90401 38.651 11.7917 38.651 13.8363V30.0129C38.651 32.0574 37.5893 33.9452 35.8689 34.9596L22.065 43.0986C20.3675 44.0994 18.2835 44.0994 16.586 43.0986L2.7821 34.9596C1.06172 33.9452 0 32.0574 0 30.0129V13.8363Z" fill="#E5F0FF"/>
<path d="M1.84052 14.7645C1.84052 12.7316 2.89042 10.8526 4.59559 9.83397L16.5589 2.68736C18.2703 1.66509 20.3807 1.66509 22.092 2.68736L34.0554 9.83397C35.7605 10.8526 36.8105 12.7316 36.8105 14.7645V29.085C36.8105 31.1181 35.7605 32.997 34.0554 34.0156L22.092 41.1623C20.3807 42.1845 18.2703 42.1845 16.5589 41.1623L4.59559 34.0156C2.89044 32.997 1.84052 31.1181 1.84052 29.085V14.7645Z" fill="#9DBFF9"/>
<path d="M19.3255 23.713C19.3255 21.5207 20.5447 19.5227 22.4609 18.5753L34.1745 12.7831C35.3963 12.1789 36.8105 13.0979 36.8105 14.4956V29.085C36.8105 31.1179 35.7605 32.997 34.0554 34.0156L22.0882 41.1645C20.8612 41.8974 19.3255 40.9839 19.3255 39.5209V32.3697V23.713Z" fill="#5B8DEF"/>
<path d="M1.84052 14.5002C1.84052 13.1012 3.25673 12.1824 4.47864 12.7887L16.1967 18.6026C18.1093 19.5515 19.3255 21.5475 19.3255 23.7371V38.7674C19.3255 38.7674 19.3406 40.1395 19.6504 40.6013C19.9158 40.9972 20.3426 41.2707 20.7287 41.3562C21.2863 41.4797 21.8587 41.2907 21.8587 41.2907C20.2925 42.233 18.3568 42.2362 16.7877 41.2989L4.59559 34.0157C2.89042 32.9971 1.84052 31.118 1.84052 29.0851V14.5002Z" fill="#0063F7"/>
<path d="M59.1913 36.7522C58.8231 36.8661 58.2342 36.9801 57.4243 37.094C56.6514 37.208 55.8415 37.265 54.9949 37.265C54.1851 37.265 53.4488 37.208 52.7862 37.094C52.1605 36.9801 51.6267 36.7522 51.185 36.4103C50.7433 36.0684 50.3935 35.6127 50.1359 35.043C49.915 34.4353 49.8046 33.6567 49.8046 32.707V15.6152C49.8046 14.7415 49.9518 14.001 50.2463 13.3933C50.5776 12.7476 51.0377 12.1778 51.6267 11.6841C52.2157 11.1903 52.9335 10.7535 53.7801 10.3737C54.6636 9.95585 55.6022 9.59504 56.5961 9.29117C57.59 8.98732 58.6207 8.75943 59.6882 8.60749C60.7557 8.41759 61.8232 8.32263 62.8907 8.32263C64.6577 8.32263 66.0564 8.68346 67.0871 9.40512C68.1178 10.0888 68.6332 11.2283 68.6332 12.8235C68.6332 13.3552 68.5595 13.887 68.4123 14.4187C68.265 14.9125 68.081 15.3683 67.8601 15.7861C67.0871 15.7861 66.2957 15.8241 65.4858 15.9C64.676 15.976 63.8846 16.0899 63.1116 16.2419C62.3385 16.3938 61.6024 16.5647 60.903 16.7547C60.2403 16.9066 59.6698 17.0964 59.1913 17.3244V36.7522Z" fill="white"/>
<path d="M82.1131 36.7522C81.7082 36.8282 81.1008 36.9231 80.291 37.0371C79.518 37.189 78.7266 37.265 77.9167 37.265C77.1069 37.265 76.3707 37.208 75.708 37.094C75.0823 36.9801 74.5485 36.7522 74.1068 36.4103C73.6651 36.0685 73.3154 35.6127 73.0578 35.043C72.8369 34.4353 72.7264 33.6567 72.7264 32.7071V9.51911C73.1314 9.44314 73.7203 9.34819 74.4933 9.23424C75.3031 9.08232 76.113 9.00635 76.9228 9.00635C77.7327 9.00635 78.4505 9.06332 79.0762 9.17727C79.7388 9.29121 80.291 9.5191 80.7327 9.86094C81.1744 10.2028 81.5058 10.6776 81.7266 11.2853C81.9843 11.855 82.1131 12.6147 82.1131 13.5642V36.7522Z" fill="white"/>
<path d="M89.0276 36.8091C88.4386 36.2774 87.9601 35.6507 87.592 34.929C87.2607 34.2074 87.095 33.3907 87.095 32.4792C87.095 31.7196 87.2607 30.9789 87.592 30.2572C87.9601 29.4976 88.4018 28.7949 88.9171 28.1492L98.4143 16.6407H88.2546C88.0337 16.2229 87.8128 15.6912 87.592 15.0455C87.4079 14.3998 87.3159 13.6971 87.3159 12.9375C87.3159 11.6081 87.592 10.6585 88.1442 10.0888C88.7331 9.4811 89.5061 9.17725 90.4632 9.17725H107.856C108.445 9.709 108.905 10.3357 109.237 11.0574C109.605 11.7791 109.789 12.5956 109.789 13.5072C109.789 14.2669 109.605 15.0264 109.237 15.7861C108.905 16.5077 108.482 17.1914 107.967 17.8371L98.6904 29.3457H109.513C109.733 29.7635 109.936 30.2953 110.12 30.941C110.341 31.5867 110.451 32.2892 110.451 33.0489C110.451 34.3783 110.157 35.3468 109.568 35.9546C109.016 36.5243 108.261 36.8091 107.304 36.8091H89.0276Z" fill="white"/>
<path d="M128.323 37.7207C126.152 37.7207 124.127 37.4168 122.25 36.809C120.409 36.1634 118.789 35.2139 117.391 33.9604C116.029 32.707 114.942 31.1307 114.133 29.2317C113.36 27.3326 112.973 25.1107 112.973 22.5659C112.973 20.059 113.36 17.9131 114.133 16.1279C114.942 14.3048 115.992 12.8235 117.281 11.684C118.569 10.5066 120.042 9.65197 121.698 9.12022C123.354 8.5505 125.047 8.26562 126.778 8.26562C128.728 8.26562 130.495 8.56949 132.079 9.1772C133.698 9.78491 135.078 10.6205 136.219 11.684C137.397 12.7475 138.299 14.0199 138.924 15.5012C139.588 16.9825 139.919 18.5967 139.919 20.3439C139.919 21.6353 139.569 22.6229 138.87 23.3065C138.171 23.9902 137.195 24.427 135.943 24.6169L122.305 26.7249C122.71 27.9783 123.538 28.9278 124.79 29.5735C126.041 30.1812 127.477 30.485 129.096 30.485C130.606 30.485 132.023 30.2952 133.348 29.9154C134.71 29.4976 135.815 29.0228 136.661 28.4911C137.25 28.8708 137.747 29.4026 138.152 30.0863C138.557 30.7699 138.759 31.4917 138.759 32.2512C138.759 33.9604 137.986 35.2329 136.44 36.0684C135.262 36.7141 133.937 37.1509 132.464 37.3788C130.993 37.6067 129.612 37.7207 128.323 37.7207ZM126.778 15.3303C125.895 15.3303 125.121 15.4822 124.459 15.7861C123.832 16.0899 123.317 16.4888 122.912 16.9825C122.507 17.4383 122.194 17.9701 121.974 18.5777C121.789 19.1475 121.679 19.7362 121.643 20.3439L131.084 18.7487C130.974 17.989 130.569 17.2294 129.87 16.4697C129.17 15.71 128.14 15.3303 126.778 15.3303Z" fill="white"/>
<path d="M153.824 36.7522C153.455 36.8661 152.867 36.9801 152.057 37.094C151.283 37.208 150.474 37.265 149.627 37.265C148.818 37.265 148.081 37.208 147.419 37.094C146.792 36.9801 146.259 36.7522 145.817 36.4103C145.376 36.0684 145.026 35.6127 144.768 35.043C144.547 34.4353 144.437 33.6567 144.437 32.707V15.6152C144.437 14.7415 144.584 14.001 144.879 13.3933C145.21 12.7476 145.67 12.1778 146.259 11.6841C146.848 11.1903 147.566 10.7535 148.413 10.3737C149.296 9.95585 150.234 9.59504 151.229 9.29117C152.223 8.98732 153.253 8.75943 154.321 8.60749C155.389 8.41759 156.455 8.32263 157.523 8.32263C159.29 8.32263 160.689 8.68346 161.719 9.40512C162.75 10.0888 163.266 11.2283 163.266 12.8235C163.266 13.3552 163.192 13.887 163.044 14.4187C162.898 14.9125 162.713 15.3683 162.493 15.7861C161.719 15.7861 160.928 15.8241 160.119 15.9C159.308 15.976 158.517 16.0899 157.744 16.2419C156.971 16.3938 156.235 16.5647 155.535 16.7547C154.873 16.9066 154.303 17.0964 153.824 17.3244V36.7522Z" fill="white"/>
</g>
<defs>
<clipPath id="clip0_8_10">
<rect width="163.266" height="45" fill="white"/>
</clipPath>
</defs>
</svg>
