<svg width="50" height="40" viewBox="0 0 50 40" fill="none" xmlns="http://www.w3.org/2000/svg">
<g clip-path="url(#clip0_162_1830)">
<path d="M7.20951 4.91229C6.9184 4.91229 6.68641 4.81703 6.51357 4.6265C6.34072 4.43597 6.2543 4.18137 6.2543 3.86268V2.2207C6.2543 1.902 6.34072 1.64912 6.51357 1.46206C6.68641 1.27153 6.9184 1.17627 7.20951 1.17627C7.50365 1.17627 7.73865 1.27153 7.91454 1.46206C8.09042 1.65258 8.17836 1.90546 8.17836 2.2207V3.86268C8.17836 4.18137 8.09042 4.43597 7.91454 4.6265C7.73865 4.81703 7.50365 4.91229 7.20951 4.91229ZM7.20951 4.59013C7.40358 4.59013 7.55975 4.52605 7.678 4.39788C7.79627 4.2697 7.8554 4.09823 7.8554 3.88346V2.20511C7.8554 1.9938 7.79627 1.82406 7.678 1.69589C7.56278 1.56771 7.40661 1.50363 7.20951 1.50363C7.01846 1.50363 6.86533 1.56771 6.75009 1.69589C6.63487 1.82406 6.57725 1.9938 6.57725 2.20511V3.88346C6.57725 4.09823 6.63487 4.2697 6.75009 4.39788C6.86533 4.52605 7.01846 4.59013 7.20951 4.59013Z" fill="url(#paint0_linear_162_1830)"/>
<path d="M9.78141 4.91229C9.49029 4.91229 9.25833 4.81703 9.08548 4.6265C8.91262 4.43597 8.8262 4.18137 8.8262 3.86268V2.2207C8.8262 1.902 8.91262 1.64912 9.08548 1.46206C9.25833 1.27153 9.49029 1.17627 9.78141 1.17627C10.0756 1.17627 10.3106 1.27153 10.4864 1.46206C10.6623 1.65258 10.7503 1.90546 10.7503 2.2207V3.86268C10.7503 4.18137 10.6623 4.43597 10.4864 4.6265C10.3106 4.81703 10.0756 4.91229 9.78141 4.91229ZM9.78141 4.59013C9.97548 4.59013 10.1316 4.52605 10.2499 4.39788C10.3682 4.2697 10.4273 4.09823 10.4273 3.88346V2.20511C10.4273 1.9938 10.3682 1.82406 10.2499 1.69589C10.1347 1.56771 9.97851 1.50363 9.78141 1.50363C9.59036 1.50363 9.43723 1.56771 9.32201 1.69589C9.20677 1.82406 9.14916 1.9938 9.14916 2.20511V3.88346C9.14916 4.09823 9.20677 4.2697 9.32201 4.39788C9.43723 4.52605 9.59036 4.59013 9.78141 4.59013Z" fill="url(#paint1_linear_162_1830)"/>
<path d="M12.3533 4.91229C12.0622 4.91229 11.8302 4.81703 11.6574 4.6265C11.4846 4.43597 11.3981 4.18137 11.3981 3.86268V2.2207C11.3981 1.902 11.4846 1.64912 11.6574 1.46206C11.8302 1.27153 12.0622 1.17627 12.3533 1.17627C12.6475 1.17627 12.8825 1.27153 13.0584 1.46206C13.2342 1.65258 13.3222 1.90546 13.3222 2.2207V3.86268C13.3222 4.18137 13.2342 4.43597 13.0584 4.6265C12.8825 4.81703 12.6475 4.91229 12.3533 4.91229ZM12.3533 4.59013C12.5474 4.59013 12.7036 4.52605 12.8218 4.39788C12.9401 4.2697 12.9992 4.09823 12.9992 3.88346V2.20511C12.9992 1.9938 12.9401 1.82406 12.8218 1.69589C12.7066 1.56771 12.5504 1.50363 12.3533 1.50363C12.1623 1.50363 12.0092 1.56771 11.8939 1.69589C11.7787 1.82406 11.7211 1.9938 11.7211 2.20511V3.88346C11.7211 4.09823 11.7787 4.2697 11.8939 4.39788C12.0092 4.52605 12.1623 4.59013 12.3533 4.59013Z" fill="url(#paint2_linear_162_1830)"/>
<path d="M14.337 1.23873C14.3552 1.22834 14.3749 1.22314 14.3961 1.22314H14.6418C14.6721 1.22314 14.6872 1.24046 14.6872 1.27511V4.80847C14.6872 4.84312 14.6721 4.86043 14.6418 4.86043H14.4098C14.3795 4.86043 14.3643 4.84312 14.3643 4.80847V1.64403C14.3643 1.6371 14.3613 1.63191 14.3552 1.62844C14.3522 1.62498 14.3476 1.62498 14.3416 1.62844L13.8594 1.85188L13.8412 1.85707C13.823 1.85707 13.8109 1.84322 13.8048 1.8155L13.7821 1.61805V1.60766C13.7821 1.59034 13.7927 1.57302 13.8139 1.5557L14.337 1.23873Z" fill="url(#paint3_linear_162_1830)"/>
<path d="M16.3867 4.91229C16.0955 4.91229 15.8636 4.81703 15.6907 4.6265C15.5179 4.43597 15.4315 4.18137 15.4315 3.86268V2.2207C15.4315 1.902 15.5179 1.64912 15.6907 1.46206C15.8636 1.27153 16.0955 1.17627 16.3867 1.17627C16.6808 1.17627 16.9158 1.27153 17.0917 1.46206C17.2676 1.65258 17.3555 1.90546 17.3555 2.2207V3.86268C17.3555 4.18137 17.2676 4.43597 17.0917 4.6265C16.9158 4.81703 16.6808 4.91229 16.3867 4.91229ZM16.3867 4.59013C16.5807 4.59013 16.7369 4.52605 16.8552 4.39788C16.9734 4.2697 17.0326 4.09823 17.0326 3.88346V2.20511C17.0326 1.9938 16.9734 1.82406 16.8552 1.69589C16.7399 1.56771 16.5838 1.50363 16.3867 1.50363C16.1956 1.50363 16.0425 1.56771 15.9272 1.69589C15.812 1.82406 15.7544 1.9938 15.7544 2.20511V3.88346C15.7544 4.09823 15.812 4.2697 15.9272 4.39788C16.0425 4.52605 16.1956 4.59013 16.3867 4.59013Z" fill="url(#paint4_linear_162_1830)"/>
<path d="M18.3704 1.23873C18.3885 1.22834 18.4082 1.22314 18.4294 1.22314H18.6752C18.7055 1.22314 18.7205 1.24046 18.7205 1.27511V4.80847C18.7205 4.84312 18.7055 4.86043 18.6752 4.86043H18.4431C18.4128 4.86043 18.3976 4.84312 18.3976 4.80847V1.64403C18.3976 1.6371 18.3945 1.63191 18.3885 1.62844C18.3854 1.62498 18.381 1.62498 18.3748 1.62844L17.8928 1.85188L17.8745 1.85707C17.8563 1.85707 17.8442 1.84322 17.8382 1.8155L17.8154 1.61805V1.60766C17.8154 1.59034 17.826 1.57302 17.8472 1.5557L18.3704 1.23873Z" fill="url(#paint5_linear_162_1830)"/>
<path d="M20.42 4.91229C20.1289 4.91229 19.8969 4.81703 19.724 4.6265C19.5512 4.43597 19.4647 4.18137 19.4647 3.86268V2.2207C19.4647 1.902 19.5512 1.64912 19.724 1.46206C19.8969 1.27153 20.1289 1.17627 20.42 1.17627C20.714 1.17627 20.9491 1.27153 21.125 1.46206C21.3009 1.65258 21.3889 1.90546 21.3889 2.2207V3.86268C21.3889 4.18137 21.3009 4.43597 21.125 4.6265C20.9491 4.81703 20.714 4.91229 20.42 4.91229ZM20.42 4.59013C20.614 4.59013 20.7702 4.52605 20.8885 4.39788C21.0067 4.2697 21.0659 4.09823 21.0659 3.88346V2.20511C21.0659 1.9938 21.0067 1.82406 20.8885 1.69589C20.7733 1.56771 20.6171 1.50363 20.42 1.50363C20.2289 1.50363 20.0759 1.56771 19.9606 1.69589C19.8454 1.82406 19.7877 1.9938 19.7877 2.20511V3.88346C19.7877 4.09823 19.8454 4.2697 19.9606 4.39788C20.0759 4.52605 20.2289 4.59013 20.42 4.59013Z" fill="url(#paint6_linear_162_1830)"/>
<path d="M22.4036 1.23873C22.4219 1.22834 22.4416 1.22314 22.4629 1.22314H22.7084C22.7387 1.22314 22.754 1.24046 22.754 1.27511V4.80847C22.754 4.84312 22.7387 4.86043 22.7084 4.86043H22.4764C22.4461 4.86043 22.431 4.84312 22.431 4.80847V1.64403C22.431 1.6371 22.4279 1.63191 22.4219 1.62844C22.4189 1.62498 22.4142 1.62498 22.4082 1.62844L21.926 1.85188L21.9079 1.85707C21.8897 1.85707 21.8776 1.84322 21.8714 1.8155L21.8488 1.61805V1.60766C21.8488 1.59034 21.8594 1.57302 21.8807 1.5557L22.4036 1.23873Z" fill="url(#paint7_linear_162_1830)"/>
<path d="M24.4532 4.91229C24.1621 4.91229 23.9301 4.81703 23.7574 4.6265C23.5846 4.43597 23.4981 4.18137 23.4981 3.86268V2.2207C23.4981 1.902 23.5846 1.64912 23.7574 1.46206C23.9301 1.27153 24.1621 1.17627 24.4532 1.17627C24.7474 1.17627 24.9825 1.27153 25.1584 1.46206C25.3342 1.65258 25.4221 1.90546 25.4221 2.2207V3.86268C25.4221 4.18137 25.3342 4.43597 25.1584 4.6265C24.9825 4.81703 24.7474 4.91229 24.4532 4.91229ZM24.4532 4.59013C24.6474 4.59013 24.8036 4.52605 24.9217 4.39788C25.0401 4.2697 25.0991 4.09823 25.0991 3.88346V2.20511C25.0991 1.9938 25.0401 1.82406 24.9217 1.69589C24.8065 1.56771 24.6503 1.50363 24.4532 1.50363C24.2623 1.50363 24.1091 1.56771 23.9938 1.69589C23.8786 1.82406 23.8211 1.9938 23.8211 2.20511V3.88346C23.8211 4.09823 23.8786 4.2697 23.9938 4.39788C24.1091 4.52605 24.2623 4.59013 24.4532 4.59013Z" fill="url(#paint8_linear_162_1830)"/>
<path d="M26.437 1.23873C26.4551 1.22834 26.4748 1.22314 26.4961 1.22314H26.7418C26.7721 1.22314 26.7872 1.24046 26.7872 1.27511V4.80847C26.7872 4.84312 26.7721 4.86043 26.7418 4.86043H26.5098C26.4795 4.86043 26.4642 4.84312 26.4642 4.80847V1.64403C26.4642 1.6371 26.4613 1.63191 26.4551 1.62844C26.4522 1.62498 26.4476 1.62498 26.4416 1.62844L25.9594 1.85188L25.9413 1.85707C25.9229 1.85707 25.9108 1.84322 25.9048 1.8155L25.882 1.61805V1.60766C25.882 1.59034 25.8926 1.57302 25.9139 1.5557L26.437 1.23873Z" fill="url(#paint9_linear_162_1830)"/>
<path d="M5.74811 11.2634C5.457 11.2634 5.22503 11.1681 5.05219 10.9776C4.87935 10.787 4.79291 10.5324 4.79291 10.2137V8.57176C4.79291 8.25307 4.87935 8.00019 5.05219 7.81313C5.22503 7.6226 5.457 7.52734 5.74811 7.52734C6.04226 7.52734 6.27727 7.6226 6.45315 7.81313C6.62902 8.00366 6.71697 8.25654 6.71697 8.57176V10.2137C6.71697 10.5324 6.62902 10.787 6.45315 10.9776C6.27727 11.1681 6.04226 11.2634 5.74811 11.2634ZM5.74811 10.9412C5.94219 10.9412 6.09835 10.8771 6.21662 10.749C6.33489 10.6208 6.39402 10.4493 6.39402 10.2345V8.55617C6.39402 8.34487 6.33489 8.17513 6.21662 8.04695C6.1014 7.91877 5.94522 7.8547 5.74811 7.8547C5.55709 7.8547 5.40394 7.91877 5.28871 8.04695C5.17347 8.17513 5.11587 8.34487 5.11587 8.55617V10.2345C5.11587 10.4493 5.17347 10.6208 5.28871 10.749C5.40394 10.8771 5.55709 10.9412 5.74811 10.9412Z" fill="url(#paint10_linear_162_1830)"/>
<path d="M7.73179 7.58981C7.75 7.57941 7.76971 7.57422 7.79094 7.57422H8.03655C8.06688 7.57422 8.08205 7.59153 8.08205 7.62618V11.1596C8.08205 11.1942 8.06688 11.2115 8.03655 11.2115H7.80459C7.77426 11.2115 7.75909 11.1942 7.75909 11.1596V7.9951C7.75909 7.98818 7.75606 7.98298 7.75 7.97951C7.74697 7.97604 7.74241 7.97604 7.73635 7.97951L7.25419 8.20294L7.23601 8.20814C7.2178 8.20814 7.20568 8.19428 7.19962 8.16657L7.17688 7.96912V7.95873C7.17688 7.94141 7.18748 7.92408 7.20871 7.90677L7.73179 7.58981Z" fill="url(#paint11_linear_162_1830)"/>
<path d="M9.78141 11.2634C9.49029 11.2634 9.25833 11.1681 9.08548 10.9776C8.91262 10.787 8.8262 10.5324 8.8262 10.2137V8.57176C8.8262 8.25307 8.91262 8.00019 9.08548 7.81313C9.25833 7.6226 9.49029 7.52734 9.78141 7.52734C10.0756 7.52734 10.3106 7.6226 10.4864 7.81313C10.6623 8.00366 10.7503 8.25654 10.7503 8.57176V10.2137C10.7503 10.5324 10.6623 10.787 10.4864 10.9776C10.3106 11.1681 10.0756 11.2634 9.78141 11.2634ZM9.78141 10.9412C9.97548 10.9412 10.1316 10.8771 10.2499 10.749C10.3682 10.6208 10.4273 10.4493 10.4273 10.2345V8.55617C10.4273 8.34487 10.3682 8.17513 10.2499 8.04695C10.1347 7.91877 9.97851 7.8547 9.78141 7.8547C9.59036 7.8547 9.43723 7.91877 9.32201 8.04695C9.20677 8.17513 9.14916 8.34487 9.14916 8.55617V10.2345C9.14916 10.4493 9.20677 10.6208 9.32201 10.749C9.43723 10.8771 9.59036 10.9412 9.78141 10.9412Z" fill="url(#paint12_linear_162_1830)"/>
<path d="M11.7651 7.58981C11.7833 7.57941 11.803 7.57422 11.8242 7.57422H12.0698C12.1002 7.57422 12.1153 7.59153 12.1153 7.62618V11.1596C12.1153 11.1942 12.1002 11.2115 12.0698 11.2115H11.8379C11.8076 11.2115 11.7924 11.1942 11.7924 11.1596V7.9951C11.7924 7.98818 11.7894 7.98298 11.7833 7.97951C11.7803 7.97604 11.7757 7.97604 11.7696 7.97951L11.2875 8.20294L11.2693 8.20814C11.2511 8.20814 11.239 8.19428 11.2329 8.16657L11.2102 7.96912V7.95873C11.2102 7.94141 11.2208 7.92408 11.242 7.90677L11.7651 7.58981Z" fill="url(#paint13_linear_162_1830)"/>
<path d="M13.8147 11.2634C13.5236 11.2634 13.2917 11.1681 13.1188 10.9776C12.9459 10.787 12.8595 10.5324 12.8595 10.2137V8.57176C12.8595 8.25307 12.9459 8.00019 13.1188 7.81313C13.2917 7.6226 13.5236 7.52734 13.8147 7.52734C14.1089 7.52734 14.3439 7.6226 14.5198 7.81313C14.6956 8.00366 14.7836 8.25654 14.7836 8.57176V10.2137C14.7836 10.5324 14.6956 10.787 14.5198 10.9776C14.3439 11.1681 14.1089 11.2634 13.8147 11.2634ZM13.8147 10.9412C14.0088 10.9412 14.165 10.8771 14.2832 10.749C14.4015 10.6208 14.4606 10.4493 14.4606 10.2345V8.55617C14.4606 8.34487 14.4015 8.17513 14.2832 8.04695C14.168 7.91877 14.0118 7.8547 13.8147 7.8547C13.6237 7.8547 13.4706 7.91877 13.3553 8.04695C13.2401 8.17513 13.1825 8.34487 13.1825 8.55617V10.2345C13.1825 10.4493 13.2401 10.6208 13.3553 10.749C13.4706 10.8771 13.6237 10.9412 13.8147 10.9412Z" fill="url(#paint14_linear_162_1830)"/>
<path d="M15.7984 7.58981C15.8166 7.57941 15.8363 7.57422 15.8576 7.57422H16.1032C16.1335 7.57422 16.1487 7.59153 16.1487 7.62618V11.1596C16.1487 11.1942 16.1335 11.2115 16.1032 11.2115H15.8712C15.8409 11.2115 15.8257 11.1942 15.8257 11.1596V7.9951C15.8257 7.98818 15.8227 7.98298 15.8166 7.97951C15.8136 7.97604 15.809 7.97604 15.803 7.97951L15.3208 8.20294L15.3026 8.20814C15.2844 8.20814 15.2723 8.19428 15.2662 8.16657L15.2435 7.96912V7.95873C15.2435 7.94141 15.2541 7.92408 15.2753 7.90677L15.7984 7.58981Z" fill="url(#paint15_linear_162_1830)"/>
<path d="M17.8481 11.2634C17.557 11.2634 17.325 11.1681 17.152 10.9776C16.9793 10.787 16.8929 10.5324 16.8929 10.2137V8.57176C16.8929 8.25307 16.9793 8.00019 17.152 7.81313C17.325 7.6226 17.557 7.52734 17.8481 7.52734C18.1423 7.52734 18.3772 7.6226 18.5531 7.81313C18.7289 8.00366 18.8169 8.25654 18.8169 8.57176V10.2137C18.8169 10.5324 18.7289 10.787 18.5531 10.9776C18.3772 11.1681 18.1423 11.2634 17.8481 11.2634ZM17.8481 10.9412C18.0421 10.9412 18.1983 10.8771 18.3166 10.749C18.4348 10.6208 18.494 10.4493 18.494 10.2345V8.55617C18.494 8.34487 18.4348 8.17513 18.3166 8.04695C18.2014 7.91877 18.0452 7.8547 17.8481 7.8547C17.657 7.8547 17.5039 7.91877 17.3887 8.04695C17.2735 8.17513 17.2157 8.34487 17.2157 8.55617V10.2345C17.2157 10.4493 17.2735 10.6208 17.3887 10.749C17.5039 10.8771 17.657 10.9412 17.8481 10.9412Z" fill="url(#paint16_linear_162_1830)"/>
<path d="M19.8317 7.58981C19.85 7.57941 19.8697 7.57422 19.8909 7.57422H20.1365C20.1668 7.57422 20.182 7.59153 20.182 7.62618V11.1596C20.182 11.1942 20.1668 11.2115 20.1365 11.2115H19.9045C19.8741 11.2115 19.8591 11.1942 19.8591 11.1596V7.9951C19.8591 7.98818 19.856 7.98298 19.85 7.97951C19.8469 7.97604 19.8423 7.97604 19.8363 7.97951L19.3541 8.20294L19.336 8.20814C19.3178 8.20814 19.3057 8.19428 19.2995 8.16657L19.2769 7.96912V7.95873C19.2769 7.94141 19.2875 7.92408 19.3087 7.90677L19.8317 7.58981Z" fill="url(#paint17_linear_162_1830)"/>
<path d="M21.8813 11.2634C21.5903 11.2634 21.3582 11.1681 21.1855 10.9776C21.0127 10.787 20.9262 10.5324 20.9262 10.2137V8.57176C20.9262 8.25307 21.0127 8.00019 21.1855 7.81313C21.3582 7.6226 21.5903 7.52734 21.8813 7.52734C22.1755 7.52734 22.4106 7.6226 22.5865 7.81313C22.7623 8.00366 22.8502 8.25654 22.8502 8.57176V10.2137C22.8502 10.5324 22.7623 10.787 22.5865 10.9776C22.4106 11.1681 22.1755 11.2634 21.8813 11.2634ZM21.8813 10.9412C22.0755 10.9412 22.2317 10.8771 22.3498 10.749C22.4682 10.6208 22.5272 10.4493 22.5272 10.2345V8.55617C22.5272 8.34487 22.4682 8.17513 22.3498 8.04695C22.2346 7.91877 22.0784 7.8547 21.8813 7.8547C21.6904 7.8547 21.5372 7.91877 21.4219 8.04695C21.3067 8.17513 21.2492 8.34487 21.2492 8.55617V10.2345C21.2492 10.4493 21.3067 10.6208 21.4219 10.749C21.5372 10.8771 21.6904 10.9412 21.8813 10.9412Z" fill="url(#paint18_linear_162_1830)"/>
<path d="M23.8651 7.58981C23.8832 7.57941 23.9029 7.57422 23.9241 7.57422H24.1698C24.2002 7.57422 24.2152 7.59153 24.2152 7.62618V11.1596C24.2152 11.1942 24.2002 11.2115 24.1698 11.2115H23.9378C23.9075 11.2115 23.8923 11.1942 23.8923 11.1596V7.9951C23.8923 7.98818 23.8894 7.98298 23.8832 7.97951C23.8803 7.97604 23.8757 7.97604 23.8697 7.97951L23.3875 8.20294L23.3693 8.20814C23.351 8.20814 23.3389 8.19428 23.3329 8.16657L23.3101 7.96912V7.95873C23.3101 7.94141 23.3207 7.92408 23.3419 7.90677L23.8651 7.58981Z" fill="url(#paint19_linear_162_1830)"/>
<path d="M25.9147 11.2634C25.6236 11.2634 25.3916 11.1681 25.2188 10.9776C25.0459 10.787 24.9596 10.5324 24.9596 10.2137V8.57176C24.9596 8.25307 25.0459 8.00019 25.2188 7.81313C25.3916 7.6226 25.6236 7.52734 25.9147 7.52734C26.2089 7.52734 26.4438 7.6226 26.6197 7.81313C26.7956 8.00366 26.8836 8.25654 26.8836 8.57176V10.2137C26.8836 10.5324 26.7956 10.787 26.6197 10.9776C26.4438 11.1681 26.2089 11.2634 25.9147 11.2634ZM25.9147 10.9412C26.1087 10.9412 26.2649 10.8771 26.3832 10.749C26.5015 10.6208 26.5606 10.4493 26.5606 10.2345V8.55617C26.5606 8.34487 26.5015 8.17513 26.3832 8.04695C26.268 7.91877 26.1118 7.8547 25.9147 7.8547C25.7236 7.8547 25.5706 7.91877 25.4553 8.04695C25.3401 8.17513 25.2825 8.34487 25.2825 8.55617V10.2345C25.2825 10.4493 25.3401 10.6208 25.4553 10.749C25.5706 10.8771 25.7236 10.9412 25.9147 10.9412Z" fill="url(#paint20_linear_162_1830)"/>
<path d="M4.98853 17.614C4.69742 17.614 4.46545 17.5187 4.29259 17.3282C4.11975 17.1377 4.03333 16.883 4.03333 16.5643V14.9224C4.03333 14.6037 4.11975 14.3508 4.29259 14.1637C4.46545 13.9732 4.69742 13.8779 4.98853 13.8779C5.28267 13.8779 5.51767 13.9732 5.69357 14.1637C5.86944 14.3542 5.95738 14.6071 5.95738 14.9224V16.5643C5.95738 16.883 5.86944 17.1377 5.69357 17.3282C5.51767 17.5187 5.28267 17.614 4.98853 17.614ZM4.98853 17.2918C5.18261 17.2918 5.33877 17.2277 5.45704 17.0995C5.57529 16.9714 5.63442 16.7999 5.63442 16.5851V14.9068C5.63442 14.6955 5.57529 14.5257 5.45704 14.3976C5.3418 14.2694 5.18564 14.2053 4.98853 14.2053C4.79749 14.2053 4.64435 14.2694 4.52913 14.3976C4.41389 14.5257 4.35627 14.6955 4.35627 14.9068V16.5851C4.35627 16.7999 4.41389 16.9714 4.52913 17.0995C4.64435 17.2277 4.79749 17.2918 4.98853 17.2918Z" fill="url(#paint21_linear_162_1830)"/>
<path d="M7.56043 17.614C7.26933 17.614 7.03735 17.5187 6.86451 17.3282C6.69166 17.1377 6.60522 16.883 6.60522 16.5643V14.9224C6.60522 14.6037 6.69166 14.3508 6.86451 14.1637C7.03735 13.9732 7.26933 13.8779 7.56043 13.8779C7.85457 13.8779 8.08959 13.9732 8.26546 14.1637C8.44135 14.3542 8.52928 14.6071 8.52928 14.9224V16.5643C8.52928 16.883 8.44135 17.1377 8.26546 17.3282C8.08959 17.5187 7.85457 17.614 7.56043 17.614ZM7.56043 17.2918C7.75451 17.2918 7.91067 17.2277 8.02894 17.0995C8.14721 16.9714 8.20634 16.7999 8.20634 16.5851V14.9068C8.20634 14.6955 8.14721 14.5257 8.02894 14.3976C7.91372 14.2694 7.75754 14.2053 7.56043 14.2053C7.3694 14.2053 7.21625 14.2694 7.10103 14.3976C6.98579 14.5257 6.92819 14.6955 6.92819 14.9068V16.5851C6.92819 16.7999 6.98579 16.9714 7.10103 17.0995C7.21625 17.2277 7.3694 17.2918 7.56043 17.2918Z" fill="url(#paint22_linear_162_1830)"/>
<path d="M9.54411 13.9404C9.56231 13.93 9.58202 13.9248 9.60326 13.9248H9.84887C9.8792 13.9248 9.89437 13.9421 9.89437 13.9768V17.5101C9.89437 17.5448 9.8792 17.5621 9.84887 17.5621H9.6169C9.58658 17.5621 9.57141 17.5448 9.57141 17.5101V14.3457C9.57141 14.3388 9.56837 14.3336 9.56231 14.3301C9.55928 14.3266 9.55473 14.3266 9.54867 14.3301L9.06651 14.5536L9.04832 14.5587C9.03012 14.5587 9.018 14.5449 9.01194 14.5172L8.9892 14.3197V14.3093C8.9892 14.292 8.9998 14.2747 9.02103 14.2574L9.54411 13.9404Z" fill="url(#paint23_linear_162_1830)"/>
<path d="M11.5938 17.614C11.3026 17.614 11.0707 17.5187 10.8978 17.3282C10.725 17.1377 10.6385 16.883 10.6385 16.5643V14.9224C10.6385 14.6037 10.725 14.3508 10.8978 14.1637C11.0707 13.9732 11.3026 13.8779 11.5938 13.8779C11.8879 13.8779 12.1229 13.9732 12.2988 14.1637C12.4747 14.3542 12.5626 14.6071 12.5626 14.9224V16.5643C12.5626 16.883 12.4747 17.1377 12.2988 17.3282C12.1229 17.5187 11.8879 17.614 11.5938 17.614ZM11.5938 17.2918C11.7878 17.2918 11.944 17.2277 12.0623 17.0995C12.1805 16.9714 12.2397 16.7999 12.2397 16.5851V14.9068C12.2397 14.6955 12.1805 14.5257 12.0623 14.3976C11.947 14.2694 11.7909 14.2053 11.5938 14.2053C11.4027 14.2053 11.2496 14.2694 11.1344 14.3976C11.0191 14.5257 10.9615 14.6955 10.9615 14.9068V16.5851C10.9615 16.7999 11.0191 16.9714 11.1344 17.0995C11.2496 17.2277 11.4027 17.2918 11.5938 17.2918Z" fill="url(#paint24_linear_162_1830)"/>
<path d="M14.1657 17.614C13.8745 17.614 13.6426 17.5187 13.4697 17.3282C13.2969 17.1377 13.2104 16.883 13.2104 16.5643V14.9224C13.2104 14.6037 13.2969 14.3508 13.4697 14.1637C13.6426 13.9732 13.8745 13.8779 14.1657 13.8779C14.4598 13.8779 14.6948 13.9732 14.8707 14.1637C15.0466 14.3542 15.1345 14.6071 15.1345 14.9224V16.5643C15.1345 16.883 15.0466 17.1377 14.8707 17.3282C14.6948 17.5187 14.4598 17.614 14.1657 17.614ZM14.1657 17.2918C14.3597 17.2918 14.5159 17.2277 14.6342 17.0995C14.7524 16.9714 14.8115 16.7999 14.8115 16.5851V14.9068C14.8115 14.6955 14.7524 14.5257 14.6342 14.3976C14.5189 14.2694 14.3628 14.2053 14.1657 14.2053C13.9746 14.2053 13.8215 14.2694 13.7062 14.3976C13.591 14.5257 13.5334 14.6955 13.5334 14.9068V16.5851C13.5334 16.7999 13.591 16.9714 13.7062 17.0995C13.8215 17.2277 13.9746 17.2918 14.1657 17.2918Z" fill="url(#paint25_linear_162_1830)"/>
<path d="M16.7376 17.614C16.4464 17.614 16.2145 17.5187 16.0416 17.3282C15.8688 17.1377 15.7823 16.883 15.7823 16.5643V14.9224C15.7823 14.6037 15.8688 14.3508 16.0416 14.1637C16.2145 13.9732 16.4464 13.8779 16.7376 13.8779C17.0317 13.8779 17.2668 13.9732 17.4426 14.1637C17.6185 14.3542 17.7065 14.6071 17.7065 14.9224V16.5643C17.7065 16.883 17.6185 17.1377 17.4426 17.3282C17.2668 17.5187 17.0317 17.614 16.7376 17.614ZM16.7376 17.2918C16.9316 17.2918 17.0878 17.2277 17.206 17.0995C17.3243 16.9714 17.3834 16.7999 17.3834 16.5851V14.9068C17.3834 14.6955 17.3243 14.5257 17.206 14.3976C17.0908 14.2694 16.9347 14.2053 16.7376 14.2053C16.5465 14.2053 16.3934 14.2694 16.2782 14.3976C16.1629 14.5257 16.1053 14.6955 16.1053 14.9068V16.5851C16.1053 16.7999 16.1629 16.9714 16.2782 17.0995C16.3934 17.2277 16.5465 17.2918 16.7376 17.2918Z" fill="url(#paint26_linear_162_1830)"/>
<path d="M19.3094 17.614C19.0183 17.614 18.7865 17.5187 18.6135 17.3282C18.4408 17.1377 18.3543 16.883 18.3543 16.5643V14.9224C18.3543 14.6037 18.4408 14.3508 18.6135 14.1637C18.7865 13.9732 19.0183 13.8779 19.3094 13.8779C19.6036 13.8779 19.8387 13.9732 20.0146 14.1637C20.1904 14.3542 20.2783 14.6071 20.2783 14.9224V16.5643C20.2783 16.883 20.1904 17.1377 20.0146 17.3282C19.8387 17.5187 19.6036 17.614 19.3094 17.614ZM19.3094 17.2918C19.5036 17.2918 19.6598 17.2277 19.7779 17.0995C19.8962 16.9714 19.9553 16.7999 19.9553 16.5851V14.9068C19.9553 14.6955 19.8962 14.5257 19.7779 14.3976C19.6627 14.2694 19.5065 14.2053 19.3094 14.2053C19.1185 14.2053 18.9652 14.2694 18.85 14.3976C18.7348 14.5257 18.6772 14.6955 18.6772 14.9068V16.5851C18.6772 16.7999 18.7348 16.9714 18.85 17.0995C18.9652 17.2277 19.1185 17.2918 19.3094 17.2918Z" fill="url(#paint27_linear_162_1830)"/>
<path d="M21.2932 13.9404C21.3113 13.93 21.331 13.9248 21.3522 13.9248H21.598C21.6283 13.9248 21.6433 13.9421 21.6433 13.9768V17.5101C21.6433 17.5448 21.6283 17.5621 21.598 17.5621H21.3659C21.3356 17.5621 21.3204 17.5448 21.3204 17.5101V14.3457C21.3204 14.3388 21.3175 14.3336 21.3113 14.3301C21.3084 14.3266 21.3038 14.3266 21.2978 14.3301L20.8156 14.5536L20.7974 14.5587C20.7791 14.5587 20.7671 14.5449 20.761 14.5172L20.7382 14.3197V14.3093C20.7382 14.292 20.7488 14.2747 20.77 14.2574L21.2932 13.9404Z" fill="url(#paint28_linear_162_1830)"/>
<path d="M23.3428 17.614C23.0517 17.614 22.8197 17.5187 22.6469 17.3282C22.474 17.1377 22.3877 16.883 22.3877 16.5643V14.9224C22.3877 14.6037 22.474 14.3508 22.6469 14.1637C22.8197 13.9732 23.0517 13.8779 23.3428 13.8779C23.637 13.8779 23.8719 13.9732 24.0478 14.1637C24.2236 14.3542 24.3116 14.6071 24.3116 14.9224V16.5643C24.3116 16.883 24.2236 17.1377 24.0478 17.3282C23.8719 17.5187 23.637 17.614 23.3428 17.614ZM23.3428 17.2918C23.5368 17.2918 23.693 17.2277 23.8113 17.0995C23.9296 16.9714 23.9887 16.7999 23.9887 16.5851V14.9068C23.9887 14.6955 23.9296 14.5257 23.8113 14.3976C23.6961 14.2694 23.5399 14.2053 23.3428 14.2053C23.1517 14.2053 22.9986 14.2694 22.8834 14.3976C22.7681 14.5257 22.7106 14.6955 22.7106 14.9068V16.5851C22.7106 16.7999 22.7681 16.9714 22.8834 17.0995C22.9986 17.2277 23.1517 17.2918 23.3428 17.2918Z" fill="url(#paint29_linear_162_1830)"/>
<path d="M25.9147 17.614C25.6236 17.614 25.3916 17.5187 25.2188 17.3282C25.0459 17.1377 24.9596 16.883 24.9596 16.5643V14.9224C24.9596 14.6037 25.0459 14.3508 25.2188 14.1637C25.3916 13.9732 25.6236 13.8779 25.9147 13.8779C26.2089 13.8779 26.4438 13.9732 26.6197 14.1637C26.7956 14.3542 26.8836 14.6071 26.8836 14.9224V16.5643C26.8836 16.883 26.7956 17.1377 26.6197 17.3282C26.4438 17.5187 26.2089 17.614 25.9147 17.614ZM25.9147 17.2918C26.1087 17.2918 26.2649 17.2277 26.3832 17.0995C26.5015 16.9714 26.5606 16.7999 26.5606 16.5851V14.9068C26.5606 14.6955 26.5015 14.5257 26.3832 14.3976C26.268 14.2694 26.1118 14.2053 25.9147 14.2053C25.7236 14.2053 25.5706 14.2694 25.4553 14.3976C25.3401 14.5257 25.2825 14.6955 25.2825 14.9068V16.5851C25.2825 16.7999 25.3401 16.9714 25.4553 17.0995C25.5706 17.2277 25.7236 17.2918 25.9147 17.2918Z" fill="url(#paint30_linear_162_1830)"/>
<path d="M3.17621 23.9651C2.8851 23.9651 2.65313 23.8698 2.48027 23.6792C2.30743 23.4886 2.22101 23.2341 2.22101 22.9153V21.2733C2.22101 20.9547 2.30743 20.7017 2.48027 20.5147C2.65313 20.3243 2.8851 20.229 3.17621 20.229C3.47036 20.229 3.70536 20.3243 3.88125 20.5147C4.05712 20.7053 4.14507 20.9582 4.14507 21.2733V22.9153C4.14507 23.2341 4.05712 23.4886 3.88125 23.6792C3.70536 23.8698 3.47036 23.9651 3.17621 23.9651ZM3.17621 23.6427C3.37029 23.6427 3.52645 23.5788 3.64472 23.4506C3.76298 23.3223 3.8221 23.151 3.8221 22.9361V21.2578C3.8221 21.0465 3.76298 20.8767 3.64472 20.7486C3.52948 20.6204 3.37332 20.5563 3.17621 20.5563C2.98517 20.5563 2.83204 20.6204 2.7168 20.7486C2.60157 20.8767 2.54395 21.0465 2.54395 21.2578V22.9361C2.54395 23.151 2.60157 23.3223 2.7168 23.4506C2.83204 23.5788 2.98517 23.6427 3.17621 23.6427Z" fill="url(#paint31_linear_162_1830)"/>
<path d="M5.15988 20.2916C5.17808 20.2812 5.19779 20.2759 5.21901 20.2759H5.46464C5.49497 20.2759 5.51012 20.2933 5.51012 20.3278V23.8614C5.51012 23.8959 5.49497 23.9133 5.46464 23.9133H5.23266C5.20233 23.9133 5.18718 23.8959 5.18718 23.8614V20.6969C5.18718 20.6898 5.18415 20.6847 5.17808 20.6812C5.17504 20.6778 5.1705 20.6778 5.16444 20.6812L4.68228 20.9047L4.66408 20.9098C4.64589 20.9098 4.63377 20.8961 4.62769 20.8682L4.60495 20.6708V20.6604C4.60495 20.6431 4.61557 20.6259 4.6368 20.6084L5.15988 20.2916Z" fill="url(#paint32_linear_162_1830)"/>
<path d="M7.20951 23.9651C6.9184 23.9651 6.68641 23.8698 6.51357 23.6792C6.34072 23.4886 6.2543 23.2341 6.2543 22.9153V21.2733C6.2543 20.9547 6.34072 20.7017 6.51357 20.5147C6.68641 20.3243 6.9184 20.229 7.20951 20.229C7.50365 20.229 7.73865 20.3243 7.91454 20.5147C8.09042 20.7053 8.17836 20.9582 8.17836 21.2733V22.9153C8.17836 23.2341 8.09042 23.4886 7.91454 23.6792C7.73865 23.8698 7.50365 23.9651 7.20951 23.9651ZM7.20951 23.6427C7.40358 23.6427 7.55975 23.5788 7.678 23.4506C7.79627 23.3223 7.8554 23.151 7.8554 22.9361V21.2578C7.8554 21.0465 7.79627 20.8767 7.678 20.7486C7.56278 20.6204 7.40661 20.5563 7.20951 20.5563C7.01846 20.5563 6.86533 20.6204 6.75009 20.7486C6.63487 20.8767 6.57725 21.0465 6.57725 21.2578V22.9361C6.57725 23.151 6.63487 23.3223 6.75009 23.4506C6.86533 23.5788 7.01846 23.6427 7.20951 23.6427Z" fill="url(#paint33_linear_162_1830)"/>
<path d="M9.78141 23.9651C9.49029 23.9651 9.25833 23.8698 9.08548 23.6792C8.91262 23.4886 8.8262 23.2341 8.8262 22.9153V21.2733C8.8262 20.9547 8.91262 20.7017 9.08548 20.5147C9.25833 20.3243 9.49029 20.229 9.78141 20.229C10.0756 20.229 10.3106 20.3243 10.4864 20.5147C10.6623 20.7053 10.7503 20.9582 10.7503 21.2733V22.9153C10.7503 23.2341 10.6623 23.4886 10.4864 23.6792C10.3106 23.8698 10.0756 23.9651 9.78141 23.9651ZM9.78141 23.6427C9.97548 23.6427 10.1316 23.5788 10.2499 23.4506C10.3682 23.3223 10.4273 23.151 10.4273 22.9361V21.2578C10.4273 21.0465 10.3682 20.8767 10.2499 20.7486C10.1347 20.6204 9.97851 20.5563 9.78141 20.5563C9.59036 20.5563 9.43723 20.6204 9.32201 20.7486C9.20677 20.8767 9.14916 21.0465 9.14916 21.2578V22.9361C9.14916 23.151 9.20677 23.3223 9.32201 23.4506C9.43723 23.5788 9.59036 23.6427 9.78141 23.6427Z" fill="url(#paint34_linear_162_1830)"/>
<path d="M12.3533 23.9651C12.0622 23.9651 11.8302 23.8698 11.6574 23.6792C11.4846 23.4886 11.3981 23.2341 11.3981 22.9153V21.2733C11.3981 20.9547 11.4846 20.7017 11.6574 20.5147C11.8302 20.3243 12.0622 20.229 12.3533 20.229C12.6475 20.229 12.8825 20.3243 13.0584 20.5147C13.2342 20.7053 13.3222 20.9582 13.3222 21.2733V22.9153C13.3222 23.2341 13.2342 23.4886 13.0584 23.6792C12.8825 23.8698 12.6475 23.9651 12.3533 23.9651ZM12.3533 23.6427C12.5474 23.6427 12.7036 23.5788 12.8218 23.4506C12.9401 23.3223 12.9992 23.151 12.9992 22.9361V21.2578C12.9992 21.0465 12.9401 20.8767 12.8218 20.7486C12.7066 20.6204 12.5504 20.5563 12.3533 20.5563C12.1623 20.5563 12.0092 20.6204 11.8939 20.7486C11.7787 20.8767 11.7211 21.0465 11.7211 21.2578V22.9361C11.7211 23.151 11.7787 23.3223 11.8939 23.4506C12.0092 23.5788 12.1623 23.6427 12.3533 23.6427Z" fill="url(#paint35_linear_162_1830)"/>
<path d="M14.337 20.2916C14.3552 20.2812 14.3749 20.2759 14.3961 20.2759H14.6418C14.6721 20.2759 14.6872 20.2933 14.6872 20.3278V23.8614C14.6872 23.8959 14.6721 23.9133 14.6418 23.9133H14.4098C14.3795 23.9133 14.3643 23.8959 14.3643 23.8614V20.6969C14.3643 20.6898 14.3613 20.6847 14.3552 20.6812C14.3522 20.6778 14.3476 20.6778 14.3416 20.6812L13.8594 20.9047L13.8412 20.9098C13.823 20.9098 13.8109 20.8961 13.8048 20.8682L13.7821 20.6708V20.6604C13.7821 20.6431 13.7927 20.6259 13.8139 20.6084L14.337 20.2916Z" fill="url(#paint36_linear_162_1830)"/>
<path d="M16.3867 23.9651C16.0955 23.9651 15.8636 23.8698 15.6907 23.6792C15.5179 23.4886 15.4315 23.2341 15.4315 22.9153V21.2733C15.4315 20.9547 15.5179 20.7017 15.6907 20.5147C15.8636 20.3243 16.0955 20.229 16.3867 20.229C16.6808 20.229 16.9158 20.3243 17.0917 20.5147C17.2676 20.7053 17.3555 20.9582 17.3555 21.2733V22.9153C17.3555 23.2341 17.2676 23.4886 17.0917 23.6792C16.9158 23.8698 16.6808 23.9651 16.3867 23.9651ZM16.3867 23.6427C16.5807 23.6427 16.7369 23.5788 16.8552 23.4506C16.9734 23.3223 17.0326 23.151 17.0326 22.9361V21.2578C17.0326 21.0465 16.9734 20.8767 16.8552 20.7486C16.7399 20.6204 16.5838 20.5563 16.3867 20.5563C16.1956 20.5563 16.0425 20.6204 15.9272 20.7486C15.812 20.8767 15.7544 21.0465 15.7544 21.2578V22.9361C15.7544 23.151 15.812 23.3223 15.9272 23.4506C16.0425 23.5788 16.1956 23.6427 16.3867 23.6427Z" fill="url(#paint37_linear_162_1830)"/>
<path d="M18.3704 20.2916C18.3885 20.2812 18.4082 20.2759 18.4294 20.2759H18.6752C18.7055 20.2759 18.7205 20.2933 18.7205 20.3278V23.8614C18.7205 23.8959 18.7055 23.9133 18.6752 23.9133H18.4431C18.4128 23.9133 18.3976 23.8959 18.3976 23.8614V20.6969C18.3976 20.6898 18.3945 20.6847 18.3885 20.6812C18.3854 20.6778 18.381 20.6778 18.3748 20.6812L17.8928 20.9047L17.8745 20.9098C17.8563 20.9098 17.8442 20.8961 17.8382 20.8682L17.8154 20.6708V20.6604C17.8154 20.6431 17.826 20.6259 17.8472 20.6084L18.3704 20.2916Z" fill="url(#paint38_linear_162_1830)"/>
<path d="M20.42 23.9651C20.1289 23.9651 19.8969 23.8698 19.724 23.6792C19.5512 23.4886 19.4647 23.2341 19.4647 22.9153V21.2733C19.4647 20.9547 19.5512 20.7017 19.724 20.5147C19.8969 20.3243 20.1289 20.229 20.42 20.229C20.714 20.229 20.9491 20.3243 21.125 20.5147C21.3009 20.7053 21.3889 20.9582 21.3889 21.2733V22.9153C21.3889 23.2341 21.3009 23.4886 21.125 23.6792C20.9491 23.8698 20.714 23.9651 20.42 23.9651ZM20.42 23.6427C20.614 23.6427 20.7702 23.5788 20.8885 23.4506C21.0067 23.3223 21.0659 23.151 21.0659 22.9361V21.2578C21.0659 21.0465 21.0067 20.8767 20.8885 20.7486C20.7733 20.6204 20.6171 20.5563 20.42 20.5563C20.2289 20.5563 20.0759 20.6204 19.9606 20.7486C19.8454 20.8767 19.7877 21.0465 19.7877 21.2578V22.9361C19.7877 23.151 19.8454 23.3223 19.9606 23.4506C20.0759 23.5788 20.2289 23.6427 20.42 23.6427Z" fill="url(#paint39_linear_162_1830)"/>
<path d="M22.4036 20.2916C22.4219 20.2812 22.4416 20.2759 22.4629 20.2759H22.7084C22.7387 20.2759 22.754 20.2933 22.754 20.3278V23.8614C22.754 23.8959 22.7387 23.9133 22.7084 23.9133H22.4764C22.4461 23.9133 22.431 23.8959 22.431 23.8614V20.6969C22.431 20.6898 22.4279 20.6847 22.4219 20.6812C22.4189 20.6778 22.4142 20.6778 22.4082 20.6812L21.926 20.9047L21.9079 20.9098C21.8897 20.9098 21.8776 20.8961 21.8714 20.8682L21.8488 20.6708V20.6604C21.8488 20.6431 21.8594 20.6259 21.8807 20.6084L22.4036 20.2916Z" fill="url(#paint40_linear_162_1830)"/>
<path d="M24.4532 23.9651C24.1621 23.9651 23.9301 23.8698 23.7574 23.6792C23.5846 23.4886 23.4981 23.2341 23.4981 22.9153V21.2733C23.4981 20.9547 23.5846 20.7017 23.7574 20.5147C23.9301 20.3243 24.1621 20.229 24.4532 20.229C24.7474 20.229 24.9825 20.3243 25.1584 20.5147C25.3342 20.7053 25.4221 20.9582 25.4221 21.2733V22.9153C25.4221 23.2341 25.3342 23.4886 25.1584 23.6792C24.9825 23.8698 24.7474 23.9651 24.4532 23.9651ZM24.4532 23.6427C24.6474 23.6427 24.8036 23.5788 24.9217 23.4506C25.0401 23.3223 25.0991 23.151 25.0991 22.9361V21.2578C25.0991 21.0465 25.0401 20.8767 24.9217 20.7486C24.8065 20.6204 24.6503 20.5563 24.4532 20.5563C24.2623 20.5563 24.1091 20.6204 23.9938 20.7486C23.8786 20.8767 23.8211 21.0465 23.8211 21.2578V22.9361C23.8211 23.151 23.8786 23.3223 23.9938 23.4506C24.1091 23.5788 24.2623 23.6427 24.4532 23.6427Z" fill="url(#paint41_linear_162_1830)"/>
<path d="M26.437 20.2916C26.4551 20.2812 26.4748 20.2759 26.4961 20.2759H26.7418C26.7721 20.2759 26.7872 20.2933 26.7872 20.3278V23.8614C26.7872 23.8959 26.7721 23.9133 26.7418 23.9133H26.5098C26.4795 23.9133 26.4642 23.8959 26.4642 23.8614V20.6969C26.4642 20.6898 26.4613 20.6847 26.4551 20.6812C26.4522 20.6778 26.4476 20.6778 26.4416 20.6812L25.9594 20.9047L25.9413 20.9098C25.9229 20.9098 25.9108 20.8961 25.9048 20.8682L25.882 20.6708V20.6604C25.882 20.6431 25.8926 20.6259 25.9139 20.6084L26.437 20.2916Z" fill="url(#paint42_linear_162_1830)"/>
<path d="M1.71478 30.3157C1.42368 30.3157 1.1917 30.2204 1.01885 30.0298C0.846007 29.8394 0.759583 29.5847 0.759583 29.2661V27.6241C0.759583 27.3053 0.846007 27.0525 1.01885 26.8655C1.1917 26.6749 1.42368 26.5796 1.71478 26.5796C2.00893 26.5796 2.24394 26.6749 2.41982 26.8655C2.59571 27.0559 2.68363 27.3088 2.68363 27.6241V29.2661C2.68363 29.5847 2.59571 29.8394 2.41982 30.0298C2.24394 30.2204 2.00893 30.3157 1.71478 30.3157ZM1.71478 29.9935C1.90886 29.9935 2.06502 29.9294 2.18329 29.8012C2.30156 29.6731 2.36069 29.5015 2.36069 29.2868V27.6084C2.36069 27.397 2.30156 27.2274 2.18329 27.0992C2.06807 26.971 1.91189 26.907 1.71478 26.907C1.52375 26.907 1.37061 26.971 1.25538 27.0992C1.14015 27.2274 1.08253 27.397 1.08253 27.6084V29.2868C1.08253 29.5015 1.14015 29.6731 1.25538 29.8012C1.37061 29.9294 1.52375 29.9935 1.71478 29.9935Z" fill="url(#paint43_linear_162_1830)"/>
<path d="M3.69847 26.642C3.71667 26.6316 3.73638 26.6265 3.75761 26.6265H4.00323C4.03355 26.6265 4.04873 26.6437 4.04873 26.6784V30.2118C4.04873 30.2463 4.03355 30.2637 4.00323 30.2637H3.77126C3.74093 30.2637 3.72576 30.2463 3.72576 30.2118V27.0472C3.72576 27.0404 3.72273 27.0351 3.71667 27.0318C3.71364 27.0282 3.70909 27.0282 3.70302 27.0318L3.22087 27.2551L3.20268 27.2604C3.18448 27.2604 3.17236 27.2465 3.16629 27.2188L3.14355 27.0214V27.011C3.14355 26.9935 3.15417 26.9763 3.17539 26.959L3.69847 26.642Z" fill="url(#paint44_linear_162_1830)"/>
<path d="M5.74811 30.3157C5.457 30.3157 5.22503 30.2204 5.05219 30.0298C4.87935 29.8394 4.79291 29.5847 4.79291 29.2661V27.6241C4.79291 27.3053 4.87935 27.0525 5.05219 26.8655C5.22503 26.6749 5.457 26.5796 5.74811 26.5796C6.04226 26.5796 6.27727 26.6749 6.45315 26.8655C6.62902 27.0559 6.71697 27.3088 6.71697 27.6241V29.2661C6.71697 29.5847 6.62902 29.8394 6.45315 30.0298C6.27727 30.2204 6.04226 30.3157 5.74811 30.3157ZM5.74811 29.9935C5.94219 29.9935 6.09835 29.9294 6.21662 29.8012C6.33489 29.6731 6.39402 29.5015 6.39402 29.2868V27.6084C6.39402 27.397 6.33489 27.2274 6.21662 27.0992C6.1014 26.971 5.94522 26.907 5.74811 26.907C5.55709 26.907 5.40394 26.971 5.28871 27.0992C5.17347 27.2274 5.11587 27.397 5.11587 27.6084V29.2868C5.11587 29.5015 5.17347 29.6731 5.28871 29.8012C5.40394 29.9294 5.55709 29.9935 5.74811 29.9935Z" fill="url(#paint45_linear_162_1830)"/>
<path d="M7.73179 26.642C7.75 26.6316 7.76971 26.6265 7.79094 26.6265H8.03655C8.06688 26.6265 8.08205 26.6437 8.08205 26.6784V30.2118C8.08205 30.2463 8.06688 30.2637 8.03655 30.2637H7.80459C7.77426 30.2637 7.75909 30.2463 7.75909 30.2118V27.0472C7.75909 27.0404 7.75606 27.0351 7.75 27.0318C7.74697 27.0282 7.74241 27.0282 7.73635 27.0318L7.25419 27.2551L7.23601 27.2604C7.2178 27.2604 7.20568 27.2465 7.19962 27.2188L7.17688 27.0214V27.011C7.17688 26.9935 7.18748 26.9763 7.20871 26.959L7.73179 26.642Z" fill="url(#paint46_linear_162_1830)"/>
<path d="M9.78141 30.3157C9.49029 30.3157 9.25833 30.2204 9.08548 30.0298C8.91262 29.8394 8.8262 29.5847 8.8262 29.2661V27.6241C8.8262 27.3053 8.91262 27.0525 9.08548 26.8655C9.25833 26.6749 9.49029 26.5796 9.78141 26.5796C10.0756 26.5796 10.3106 26.6749 10.4864 26.8655C10.6623 27.0559 10.7503 27.3088 10.7503 27.6241V29.2661C10.7503 29.5847 10.6623 29.8394 10.4864 30.0298C10.3106 30.2204 10.0756 30.3157 9.78141 30.3157ZM9.78141 29.9935C9.97548 29.9935 10.1316 29.9294 10.2499 29.8012C10.3682 29.6731 10.4273 29.5015 10.4273 29.2868V27.6084C10.4273 27.397 10.3682 27.2274 10.2499 27.0992C10.1347 26.971 9.97851 26.907 9.78141 26.907C9.59036 26.907 9.43723 26.971 9.32201 27.0992C9.20677 27.2274 9.14916 27.397 9.14916 27.6084V29.2868C9.14916 29.5015 9.20677 29.6731 9.32201 29.8012C9.43723 29.9294 9.59036 29.9935 9.78141 29.9935Z" fill="url(#paint47_linear_162_1830)"/>
<path d="M11.7651 26.642C11.7833 26.6316 11.803 26.6265 11.8242 26.6265H12.0698C12.1002 26.6265 12.1153 26.6437 12.1153 26.6784V30.2118C12.1153 30.2463 12.1002 30.2637 12.0698 30.2637H11.8379C11.8076 30.2637 11.7924 30.2463 11.7924 30.2118V27.0472C11.7924 27.0404 11.7894 27.0351 11.7833 27.0318C11.7803 27.0282 11.7757 27.0282 11.7696 27.0318L11.2875 27.2551L11.2693 27.2604C11.2511 27.2604 11.239 27.2465 11.2329 27.2188L11.2102 27.0214V27.011C11.2102 26.9935 11.2208 26.9763 11.242 26.959L11.7651 26.642Z" fill="url(#paint48_linear_162_1830)"/>
<path d="M13.8147 30.3157C13.5236 30.3157 13.2917 30.2204 13.1188 30.0298C12.9459 29.8394 12.8595 29.5847 12.8595 29.2661V27.6241C12.8595 27.3053 12.9459 27.0525 13.1188 26.8655C13.2917 26.6749 13.5236 26.5796 13.8147 26.5796C14.1089 26.5796 14.3439 26.6749 14.5198 26.8655C14.6956 27.0559 14.7836 27.3088 14.7836 27.6241V29.2661C14.7836 29.5847 14.6956 29.8394 14.5198 30.0298C14.3439 30.2204 14.1089 30.3157 13.8147 30.3157ZM13.8147 29.9935C14.0088 29.9935 14.165 29.9294 14.2832 29.8012C14.4015 29.6731 14.4606 29.5015 14.4606 29.2868V27.6084C14.4606 27.397 14.4015 27.2274 14.2832 27.0992C14.168 26.971 14.0118 26.907 13.8147 26.907C13.6237 26.907 13.4706 26.971 13.3553 27.0992C13.2401 27.2274 13.1825 27.397 13.1825 27.6084V29.2868C13.1825 29.5015 13.2401 29.6731 13.3553 29.8012C13.4706 29.9294 13.6237 29.9935 13.8147 29.9935Z" fill="url(#paint49_linear_162_1830)"/>
<path d="M15.7984 26.642C15.8166 26.6316 15.8363 26.6265 15.8576 26.6265H16.1032C16.1335 26.6265 16.1487 26.6437 16.1487 26.6784V30.2118C16.1487 30.2463 16.1335 30.2637 16.1032 30.2637H15.8712C15.8409 30.2637 15.8257 30.2463 15.8257 30.2118V27.0472C15.8257 27.0404 15.8227 27.0351 15.8166 27.0318C15.8136 27.0282 15.809 27.0282 15.803 27.0318L15.3208 27.2551L15.3026 27.2604C15.2844 27.2604 15.2723 27.2465 15.2662 27.2188L15.2435 27.0214V27.011C15.2435 26.9935 15.2541 26.9763 15.2753 26.959L15.7984 26.642Z" fill="url(#paint50_linear_162_1830)"/>
<path d="M17.8481 30.3157C17.557 30.3157 17.325 30.2204 17.152 30.0298C16.9793 29.8394 16.8929 29.5847 16.8929 29.2661V27.6241C16.8929 27.3053 16.9793 27.0525 17.152 26.8655C17.325 26.6749 17.557 26.5796 17.8481 26.5796C18.1423 26.5796 18.3772 26.6749 18.5531 26.8655C18.7289 27.0559 18.8169 27.3088 18.8169 27.6241V29.2661C18.8169 29.5847 18.7289 29.8394 18.5531 30.0298C18.3772 30.2204 18.1423 30.3157 17.8481 30.3157ZM17.8481 29.9935C18.0421 29.9935 18.1983 29.9294 18.3166 29.8012C18.4348 29.6731 18.494 29.5015 18.494 29.2868V27.6084C18.494 27.397 18.4348 27.2274 18.3166 27.0992C18.2014 26.971 18.0452 26.907 17.8481 26.907C17.657 26.907 17.5039 26.971 17.3887 27.0992C17.2735 27.2274 17.2157 27.397 17.2157 27.6084V29.2868C17.2157 29.5015 17.2735 29.6731 17.3887 29.8012C17.5039 29.9294 17.657 29.9935 17.8481 29.9935Z" fill="url(#paint51_linear_162_1830)"/>
<path d="M19.8317 26.642C19.85 26.6316 19.8697 26.6265 19.8909 26.6265H20.1365C20.1668 26.6265 20.182 26.6437 20.182 26.6784V30.2118C20.182 30.2463 20.1668 30.2637 20.1365 30.2637H19.9045C19.8741 30.2637 19.8591 30.2463 19.8591 30.2118V27.0472C19.8591 27.0404 19.856 27.0351 19.85 27.0318C19.8469 27.0282 19.8423 27.0282 19.8363 27.0318L19.3541 27.2551L19.336 27.2604C19.3178 27.2604 19.3057 27.2465 19.2995 27.2188L19.2769 27.0214V27.011C19.2769 26.9935 19.2875 26.9763 19.3087 26.959L19.8317 26.642Z" fill="url(#paint52_linear_162_1830)"/>
<path d="M21.8813 30.3157C21.5903 30.3157 21.3582 30.2204 21.1855 30.0298C21.0127 29.8394 20.9262 29.5847 20.9262 29.2661V27.6241C20.9262 27.3053 21.0127 27.0525 21.1855 26.8655C21.3582 26.6749 21.5903 26.5796 21.8813 26.5796C22.1755 26.5796 22.4106 26.6749 22.5865 26.8655C22.7623 27.0559 22.8502 27.3088 22.8502 27.6241V29.2661C22.8502 29.5847 22.7623 29.8394 22.5865 30.0298C22.4106 30.2204 22.1755 30.3157 21.8813 30.3157ZM21.8813 29.9935C22.0755 29.9935 22.2317 29.9294 22.3498 29.8012C22.4682 29.6731 22.5272 29.5015 22.5272 29.2868V27.6084C22.5272 27.397 22.4682 27.2274 22.3498 27.0992C22.2346 26.971 22.0784 26.907 21.8813 26.907C21.6904 26.907 21.5372 26.971 21.4219 27.0992C21.3067 27.2274 21.2492 27.397 21.2492 27.6084V29.2868C21.2492 29.5015 21.3067 29.6731 21.4219 29.8012C21.5372 29.9294 21.6904 29.9935 21.8813 29.9935Z" fill="url(#paint53_linear_162_1830)"/>
<path d="M23.8651 26.642C23.8832 26.6316 23.9029 26.6265 23.9241 26.6265H24.1698C24.2002 26.6265 24.2152 26.6437 24.2152 26.6784V30.2118C24.2152 30.2463 24.2002 30.2637 24.1698 30.2637H23.9378C23.9075 30.2637 23.8923 30.2463 23.8923 30.2118V27.0472C23.8923 27.0404 23.8894 27.0351 23.8832 27.0318C23.8803 27.0282 23.8757 27.0282 23.8697 27.0318L23.3875 27.2551L23.3693 27.2604C23.351 27.2604 23.3389 27.2465 23.3329 27.2188L23.3101 27.0214V27.011C23.3101 26.9935 23.3207 26.9763 23.3419 26.959L23.8651 26.642Z" fill="url(#paint54_linear_162_1830)"/>
<path d="M25.9147 30.3157C25.6236 30.3157 25.3916 30.2204 25.2188 30.0298C25.0459 29.8394 24.9596 29.5847 24.9596 29.2661V27.6241C24.9596 27.3053 25.0459 27.0525 25.2188 26.8655C25.3916 26.6749 25.6236 26.5796 25.9147 26.5796C26.2089 26.5796 26.4438 26.6749 26.6197 26.8655C26.7956 27.0559 26.8836 27.3088 26.8836 27.6241V29.2661C26.8836 29.5847 26.7956 29.8394 26.6197 30.0298C26.4438 30.2204 26.2089 30.3157 25.9147 30.3157ZM25.9147 29.9935C26.1087 29.9935 26.2649 29.9294 26.3832 29.8012C26.5015 29.6731 26.5606 29.5015 26.5606 29.2868V27.6084C26.5606 27.397 26.5015 27.2274 26.3832 27.0992C26.268 26.971 26.1118 26.907 25.9147 26.907C25.7236 26.907 25.5706 26.971 25.4553 27.0992C25.3401 27.2274 25.2825 27.397 25.2825 27.6084V29.2868C25.2825 29.5015 25.3401 29.6731 25.4553 29.8012C25.5706 29.9294 25.7236 29.9935 25.9147 29.9935Z" fill="url(#paint55_linear_162_1830)"/>
<path d="M0.955204 36.6667C0.664094 36.6667 0.432116 36.5714 0.259271 36.3811C0.0864235 36.1905 0 35.9358 0 35.6171V33.9752C0 33.6565 0.0864235 33.4036 0.259271 33.2165C0.432116 33.026 0.664094 32.9307 0.955204 32.9307C1.24935 32.9307 1.48436 33.026 1.66024 33.2165C1.83611 33.4071 1.92406 33.6599 1.92406 33.9752V35.6171C1.92406 35.9358 1.83611 36.1905 1.66024 36.3811C1.48436 36.5714 1.24935 36.6667 0.955204 36.6667ZM0.955204 36.3446C1.14928 36.3446 1.30545 36.2805 1.42371 36.1522C1.54197 36.0242 1.6011 35.8526 1.6011 35.6379V33.9595C1.6011 33.7483 1.54197 33.5785 1.42371 33.4503C1.30848 33.3222 1.15231 33.2581 0.955204 33.2581C0.764163 33.2581 0.611027 33.3222 0.495796 33.4503C0.380565 33.5785 0.32295 33.7483 0.32295 33.9595V35.6379C0.32295 35.8526 0.380565 36.0242 0.495796 36.1522C0.611027 36.2805 0.764163 36.3446 0.955204 36.3446Z" fill="url(#paint56_linear_162_1830)"/>
<path d="M2.93887 32.993C2.95708 32.9826 2.97678 32.9775 2.998 32.9775H3.24363C3.27396 32.9775 3.28911 32.9948 3.28911 33.0295V36.5628C3.28911 36.5975 3.27396 36.6148 3.24363 36.6148H3.01165C2.98132 36.6148 2.96617 36.5975 2.96617 36.5628V33.3983C2.96617 33.3915 2.96314 33.3862 2.95708 33.3828C2.95404 33.3793 2.94949 33.3793 2.94343 33.3828L2.46127 33.6062L2.44309 33.6115C2.42488 33.6115 2.41276 33.5975 2.40668 33.5699L2.38394 33.3724V33.362C2.38394 33.3448 2.39456 33.3273 2.41579 33.3101L2.93887 32.993Z" fill="url(#paint57_linear_162_1830)"/>
<path d="M4.98853 36.6667C4.69742 36.6667 4.46545 36.5714 4.29259 36.3811C4.11975 36.1905 4.03333 35.9358 4.03333 35.6171V33.9752C4.03333 33.6565 4.11975 33.4036 4.29259 33.2165C4.46545 33.026 4.69742 32.9307 4.98853 32.9307C5.28267 32.9307 5.51767 33.026 5.69357 33.2165C5.86944 33.4071 5.95738 33.6599 5.95738 33.9752V35.6171C5.95738 35.9358 5.86944 36.1905 5.69357 36.3811C5.51767 36.5714 5.28267 36.6667 4.98853 36.6667ZM4.98853 36.3446C5.18261 36.3446 5.33877 36.2805 5.45704 36.1522C5.57529 36.0242 5.63442 35.8526 5.63442 35.6379V33.9595C5.63442 33.7483 5.57529 33.5785 5.45704 33.4503C5.3418 33.3222 5.18564 33.2581 4.98853 33.2581C4.79749 33.2581 4.64435 33.3222 4.52913 33.4503C4.41389 33.5785 4.35627 33.7483 4.35627 33.9595V35.6379C4.35627 35.8526 4.41389 36.0242 4.52913 36.1522C4.64435 36.2805 4.79749 36.3446 4.98853 36.3446Z" fill="url(#paint58_linear_162_1830)"/>
<path d="M7.56043 36.6667C7.26933 36.6667 7.03735 36.5714 6.86451 36.3811C6.69166 36.1905 6.60522 35.9358 6.60522 35.6171V33.9752C6.60522 33.6565 6.69166 33.4036 6.86451 33.2165C7.03735 33.026 7.26933 32.9307 7.56043 32.9307C7.85457 32.9307 8.08959 33.026 8.26546 33.2165C8.44135 33.4071 8.52928 33.6599 8.52928 33.9752V35.6171C8.52928 35.9358 8.44135 36.1905 8.26546 36.3811C8.08959 36.5714 7.85457 36.6667 7.56043 36.6667ZM7.56043 36.3446C7.75451 36.3446 7.91067 36.2805 8.02894 36.1522C8.14721 36.0242 8.20634 35.8526 8.20634 35.6379V33.9595C8.20634 33.7483 8.14721 33.5785 8.02894 33.4503C7.91372 33.3222 7.75754 33.2581 7.56043 33.2581C7.3694 33.2581 7.21625 33.3222 7.10103 33.4503C6.98579 33.5785 6.92819 33.7483 6.92819 33.9595V35.6379C6.92819 35.8526 6.98579 36.0242 7.10103 36.1522C7.21625 36.2805 7.3694 36.3446 7.56043 36.3446Z" fill="url(#paint59_linear_162_1830)"/>
<path d="M9.54411 32.993C9.56231 32.9826 9.58202 32.9775 9.60326 32.9775H9.84887C9.8792 32.9775 9.89437 32.9948 9.89437 33.0295V36.5628C9.89437 36.5975 9.8792 36.6148 9.84887 36.6148H9.6169C9.58658 36.6148 9.57141 36.5975 9.57141 36.5628V33.3983C9.57141 33.3915 9.56837 33.3862 9.56231 33.3828C9.55928 33.3793 9.55473 33.3793 9.54867 33.3828L9.06651 33.6062L9.04832 33.6115C9.03012 33.6115 9.018 33.5975 9.01194 33.5699L8.9892 33.3724V33.362C8.9892 33.3448 8.9998 33.3273 9.02103 33.3101L9.54411 32.993Z" fill="url(#paint60_linear_162_1830)"/>
<path d="M11.5938 36.6667C11.3026 36.6667 11.0707 36.5714 10.8978 36.3811C10.725 36.1905 10.6385 35.9358 10.6385 35.6171V33.9752C10.6385 33.6565 10.725 33.4036 10.8978 33.2165C11.0707 33.026 11.3026 32.9307 11.5938 32.9307C11.8879 32.9307 12.1229 33.026 12.2988 33.2165C12.4747 33.4071 12.5626 33.6599 12.5626 33.9752V35.6171C12.5626 35.9358 12.4747 36.1905 12.2988 36.3811C12.1229 36.5714 11.8879 36.6667 11.5938 36.6667ZM11.5938 36.3446C11.7878 36.3446 11.944 36.2805 12.0623 36.1522C12.1805 36.0242 12.2397 35.8526 12.2397 35.6379V33.9595C12.2397 33.7483 12.1805 33.5785 12.0623 33.4503C11.947 33.3222 11.7909 33.2581 11.5938 33.2581C11.4027 33.2581 11.2496 33.3222 11.1344 33.4503C11.0191 33.5785 10.9615 33.7483 10.9615 33.9595V35.6379C10.9615 35.8526 11.0191 36.0242 11.1344 36.1522C11.2496 36.2805 11.4027 36.3446 11.5938 36.3446Z" fill="url(#paint61_linear_162_1830)"/>
<path d="M14.1657 36.6667C13.8745 36.6667 13.6426 36.5714 13.4697 36.3811C13.2969 36.1905 13.2104 35.9358 13.2104 35.6171V33.9752C13.2104 33.6565 13.2969 33.4036 13.4697 33.2165C13.6426 33.026 13.8745 32.9307 14.1657 32.9307C14.4598 32.9307 14.6948 33.026 14.8707 33.2165C15.0466 33.4071 15.1345 33.6599 15.1345 33.9752V35.6171C15.1345 35.9358 15.0466 36.1905 14.8707 36.3811C14.6948 36.5714 14.4598 36.6667 14.1657 36.6667ZM14.1657 36.3446C14.3597 36.3446 14.5159 36.2805 14.6342 36.1522C14.7524 36.0242 14.8115 35.8526 14.8115 35.6379V33.9595C14.8115 33.7483 14.7524 33.5785 14.6342 33.4503C14.5189 33.3222 14.3628 33.2581 14.1657 33.2581C13.9746 33.2581 13.8215 33.3222 13.7062 33.4503C13.591 33.5785 13.5334 33.7483 13.5334 33.9595V35.6379C13.5334 35.8526 13.591 36.0242 13.7062 36.1522C13.8215 36.2805 13.9746 36.3446 14.1657 36.3446Z" fill="url(#paint62_linear_162_1830)"/>
<path d="M16.7376 36.6667C16.4464 36.6667 16.2145 36.5714 16.0416 36.3811C15.8688 36.1905 15.7823 35.9358 15.7823 35.6171V33.9752C15.7823 33.6565 15.8688 33.4036 16.0416 33.2165C16.2145 33.026 16.4464 32.9307 16.7376 32.9307C17.0317 32.9307 17.2668 33.026 17.4426 33.2165C17.6185 33.4071 17.7065 33.6599 17.7065 33.9752V35.6171C17.7065 35.9358 17.6185 36.1905 17.4426 36.3811C17.2668 36.5714 17.0317 36.6667 16.7376 36.6667ZM16.7376 36.3446C16.9316 36.3446 17.0878 36.2805 17.206 36.1522C17.3243 36.0242 17.3834 35.8526 17.3834 35.6379V33.9595C17.3834 33.7483 17.3243 33.5785 17.206 33.4503C17.0908 33.3222 16.9347 33.2581 16.7376 33.2581C16.5465 33.2581 16.3934 33.3222 16.2782 33.4503C16.1629 33.5785 16.1053 33.7483 16.1053 33.9595V35.6379C16.1053 35.8526 16.1629 36.0242 16.2782 36.1522C16.3934 36.2805 16.5465 36.3446 16.7376 36.3446Z" fill="url(#paint63_linear_162_1830)"/>
<path d="M19.3094 36.6667C19.0183 36.6667 18.7865 36.5714 18.6135 36.3811C18.4408 36.1905 18.3543 35.9358 18.3543 35.6171V33.9752C18.3543 33.6565 18.4408 33.4036 18.6135 33.2165C18.7865 33.026 19.0183 32.9307 19.3094 32.9307C19.6036 32.9307 19.8387 33.026 20.0146 33.2165C20.1904 33.4071 20.2783 33.6599 20.2783 33.9752V35.6171C20.2783 35.9358 20.1904 36.1905 20.0146 36.3811C19.8387 36.5714 19.6036 36.6667 19.3094 36.6667ZM19.3094 36.3446C19.5036 36.3446 19.6598 36.2805 19.7779 36.1522C19.8962 36.0242 19.9553 35.8526 19.9553 35.6379V33.9595C19.9553 33.7483 19.8962 33.5785 19.7779 33.4503C19.6627 33.3222 19.5065 33.2581 19.3094 33.2581C19.1185 33.2581 18.9652 33.3222 18.85 33.4503C18.7348 33.5785 18.6772 33.7483 18.6772 33.9595V35.6379C18.6772 35.8526 18.7348 36.0242 18.85 36.1522C18.9652 36.2805 19.1185 36.3446 19.3094 36.3446Z" fill="url(#paint64_linear_162_1830)"/>
<path d="M21.2932 32.993C21.3113 32.9826 21.331 32.9775 21.3522 32.9775H21.598C21.6283 32.9775 21.6433 32.9948 21.6433 33.0295V36.5628C21.6433 36.5975 21.6283 36.6148 21.598 36.6148H21.3659C21.3356 36.6148 21.3204 36.5975 21.3204 36.5628V33.3983C21.3204 33.3915 21.3175 33.3862 21.3113 33.3828C21.3084 33.3793 21.3038 33.3793 21.2978 33.3828L20.8156 33.6062L20.7974 33.6115C20.7791 33.6115 20.7671 33.5975 20.761 33.5699L20.7382 33.3724V33.362C20.7382 33.3448 20.7488 33.3273 20.77 33.3101L21.2932 32.993Z" fill="url(#paint65_linear_162_1830)"/>
<path d="M23.3428 36.6667C23.0517 36.6667 22.8197 36.5714 22.6469 36.3811C22.474 36.1905 22.3877 35.9358 22.3877 35.6171V33.9752C22.3877 33.6565 22.474 33.4036 22.6469 33.2165C22.8197 33.026 23.0517 32.9307 23.3428 32.9307C23.637 32.9307 23.8719 33.026 24.0478 33.2165C24.2236 33.4071 24.3116 33.6599 24.3116 33.9752V35.6171C24.3116 35.9358 24.2236 36.1905 24.0478 36.3811C23.8719 36.5714 23.637 36.6667 23.3428 36.6667ZM23.3428 36.3446C23.5368 36.3446 23.693 36.2805 23.8113 36.1522C23.9296 36.0242 23.9887 35.8526 23.9887 35.6379V33.9595C23.9887 33.7483 23.9296 33.5785 23.8113 33.4503C23.6961 33.3222 23.5399 33.2581 23.3428 33.2581C23.1517 33.2581 22.9986 33.3222 22.8834 33.4503C22.7681 33.5785 22.7106 33.7483 22.7106 33.9595V35.6379C22.7106 35.8526 22.7681 36.0242 22.8834 36.1522C22.9986 36.2805 23.1517 36.3446 23.3428 36.3446Z" fill="url(#paint66_linear_162_1830)"/>
<path d="M25.9147 36.6667C25.6236 36.6667 25.3916 36.5714 25.2188 36.3811C25.0459 36.1905 24.9596 35.9358 24.9596 35.6171V33.9752C24.9596 33.6565 25.0459 33.4036 25.2188 33.2165C25.3916 33.026 25.6236 32.9307 25.9147 32.9307C26.2089 32.9307 26.4438 33.026 26.6197 33.2165C26.7956 33.4071 26.8836 33.6599 26.8836 33.9752V35.6171C26.8836 35.9358 26.7956 36.1905 26.6197 36.3811C26.4438 36.5714 26.2089 36.6667 25.9147 36.6667ZM25.9147 36.3446C26.1087 36.3446 26.2649 36.2805 26.3832 36.1522C26.5015 36.0242 26.5606 35.8526 26.5606 35.6379V33.9595C26.5606 33.7483 26.5015 33.5785 26.3832 33.4503C26.268 33.3222 26.1118 33.2581 25.9147 33.2581C25.7236 33.2581 25.5706 33.3222 25.4553 33.4503C25.3401 33.5785 25.2825 33.7483 25.2825 33.9595V35.6379C25.2825 35.8526 25.3401 36.0242 25.4553 36.1522C25.5706 36.2805 25.7236 36.3446 25.9147 36.3446Z" fill="url(#paint67_linear_162_1830)"/>
<path d="M18.7704 0.156738L39.5276 2.60164L26.2747 39.9182L5.08746 37.4231L18.7704 0.156738Z" fill="url(#paint68_linear_162_1830)"/>
<path d="M41.9074 23.3373C42.0057 23.2787 42.1228 23.2781 42.2216 23.336L48.5041 27.0179C48.7527 27.1636 48.7527 27.5705 48.5041 27.7162L42.2216 31.3981C42.1228 31.456 42.0057 31.4554 41.9074 31.3967L35.7303 27.715C35.4846 27.5683 35.4846 27.1658 35.7303 27.0193L41.9074 23.3373Z" fill="black" fill-opacity="0.01"/>
<path d="M34.2466 14.3313C34.2466 13.6277 34.5759 12.978 35.1094 12.6289L41.2738 8.59527C41.8002 8.2508 42.4464 8.2508 42.9728 8.59527L49.1372 12.6289C49.6707 12.978 50 13.6277 50 14.3313V22.3637C50 23.0674 49.6707 23.717 49.1372 24.066L42.9728 28.0998C42.4464 28.4443 41.8002 28.4443 41.2738 28.0998L35.1094 24.066C34.5759 23.717 34.2466 23.0674 34.2466 22.3637V14.3313Z" fill="#E5F0FF"/>
<path d="M34.9967 14.7533C34.9967 14.0536 35.3222 13.4069 35.851 13.0564L41.2654 9.46699C41.7961 9.11517 42.4505 9.11517 42.9812 9.46699L48.3954 13.0564C48.9241 13.4069 49.2498 14.0536 49.2498 14.7533V21.9415C49.2498 22.6411 48.9241 23.2878 48.3954 23.6383L42.9812 27.2278C42.4505 27.5795 41.7961 27.5795 41.2654 27.2278L35.851 23.6383C35.3222 23.2878 34.9967 22.6411 34.9967 21.9415V14.7533Z" fill="#9DBFF9"/>
<path d="M42.1233 18.7682C42.1233 18.0136 42.5014 17.3261 43.0956 17L48.4324 14.0713C48.8113 13.8634 49.2498 14.1796 49.2498 14.6607V21.9413C49.2498 22.6409 48.9241 23.2875 48.3954 23.6381L42.98 27.2285C42.5995 27.4807 42.1233 27.1664 42.1233 26.6628V18.7682Z" fill="#5B8DEF"/>
<path d="M34.9967 14.6622C34.9967 14.1807 35.4359 13.8645 35.8149 14.0732L41.1529 17.0125C41.746 17.339 42.1233 18.0259 42.1233 18.7796V25.9656C42.1233 25.9656 42.1294 26.5862 42.2556 26.7952C42.3639 26.9742 42.5378 27.0979 42.6952 27.1366C42.9224 27.1925 43.1558 27.107 43.1558 27.107L42.9827 27.2225C42.4514 27.5774 41.7945 27.5785 41.2623 27.2256L35.851 23.6381C35.3222 23.2876 34.9967 22.6409 34.9967 21.9413V14.6622Z" fill="#0063F7"/>
<path d="M26.113 0.882324L35.1027 14.7059V22.3529L12.3288 36.9608L26.113 0.882324Z" fill="url(#paint69_linear_162_1830)"/>
</g>
<defs>
<linearGradient id="paint0_linear_162_1830" x1="60.0981" y1="-17.1659" x2="-11.0226" y2="16.7823" gradientUnits="userSpaceOnUse">
<stop stop-color="#0063F7"/>
<stop offset="1" stop-color="#9DBFF9"/>
</linearGradient>
<linearGradient id="paint1_linear_162_1830" x1="60.0981" y1="-17.1659" x2="-11.0226" y2="16.7823" gradientUnits="userSpaceOnUse">
<stop stop-color="#0063F7"/>
<stop offset="1" stop-color="#9DBFF9"/>
</linearGradient>
<linearGradient id="paint2_linear_162_1830" x1="60.0981" y1="-17.1659" x2="-11.0226" y2="16.7823" gradientUnits="userSpaceOnUse">
<stop stop-color="#0063F7"/>
<stop offset="1" stop-color="#9DBFF9"/>
</linearGradient>
<linearGradient id="paint3_linear_162_1830" x1="60.0981" y1="-17.1658" x2="-11.0226" y2="16.7824" gradientUnits="userSpaceOnUse">
<stop stop-color="#0063F7"/>
<stop offset="1" stop-color="#9DBFF9"/>
</linearGradient>
<linearGradient id="paint4_linear_162_1830" x1="60.0981" y1="-17.166" x2="-11.0226" y2="16.7823" gradientUnits="userSpaceOnUse">
<stop stop-color="#0063F7"/>
<stop offset="1" stop-color="#9DBFF9"/>
</linearGradient>
<linearGradient id="paint5_linear_162_1830" x1="60.0981" y1="-17.1658" x2="-11.0226" y2="16.7825" gradientUnits="userSpaceOnUse">
<stop stop-color="#0063F7"/>
<stop offset="1" stop-color="#9DBFF9"/>
</linearGradient>
<linearGradient id="paint6_linear_162_1830" x1="60.0981" y1="-17.1659" x2="-11.0226" y2="16.7823" gradientUnits="userSpaceOnUse">
<stop stop-color="#0063F7"/>
<stop offset="1" stop-color="#9DBFF9"/>
</linearGradient>
<linearGradient id="paint7_linear_162_1830" x1="60.0981" y1="-17.1658" x2="-11.0226" y2="16.7824" gradientUnits="userSpaceOnUse">
<stop stop-color="#0063F7"/>
<stop offset="1" stop-color="#9DBFF9"/>
</linearGradient>
<linearGradient id="paint8_linear_162_1830" x1="60.0981" y1="-17.1659" x2="-11.0226" y2="16.7823" gradientUnits="userSpaceOnUse">
<stop stop-color="#0063F7"/>
<stop offset="1" stop-color="#9DBFF9"/>
</linearGradient>
<linearGradient id="paint9_linear_162_1830" x1="60.0981" y1="-17.1658" x2="-11.0226" y2="16.7824" gradientUnits="userSpaceOnUse">
<stop stop-color="#0063F7"/>
<stop offset="1" stop-color="#9DBFF9"/>
</linearGradient>
<linearGradient id="paint10_linear_162_1830" x1="60.0981" y1="-17.1657" x2="-11.0226" y2="16.7826" gradientUnits="userSpaceOnUse">
<stop stop-color="#0063F7"/>
<stop offset="1" stop-color="#9DBFF9"/>
</linearGradient>
<linearGradient id="paint11_linear_162_1830" x1="60.0981" y1="-17.1656" x2="-11.0226" y2="16.7827" gradientUnits="userSpaceOnUse">
<stop stop-color="#0063F7"/>
<stop offset="1" stop-color="#9DBFF9"/>
</linearGradient>
<linearGradient id="paint12_linear_162_1830" x1="60.0981" y1="-17.1657" x2="-11.0226" y2="16.7825" gradientUnits="userSpaceOnUse">
<stop stop-color="#0063F7"/>
<stop offset="1" stop-color="#9DBFF9"/>
</linearGradient>
<linearGradient id="paint13_linear_162_1830" x1="60.0981" y1="-17.1656" x2="-11.0226" y2="16.7827" gradientUnits="userSpaceOnUse">
<stop stop-color="#0063F7"/>
<stop offset="1" stop-color="#9DBFF9"/>
</linearGradient>
<linearGradient id="paint14_linear_162_1830" x1="60.0981" y1="-17.1657" x2="-11.0226" y2="16.7825" gradientUnits="userSpaceOnUse">
<stop stop-color="#0063F7"/>
<stop offset="1" stop-color="#9DBFF9"/>
</linearGradient>
<linearGradient id="paint15_linear_162_1830" x1="60.0981" y1="-17.1656" x2="-11.0226" y2="16.7826" gradientUnits="userSpaceOnUse">
<stop stop-color="#0063F7"/>
<stop offset="1" stop-color="#9DBFF9"/>
</linearGradient>
<linearGradient id="paint16_linear_162_1830" x1="60.0981" y1="-17.1657" x2="-11.0226" y2="16.7826" gradientUnits="userSpaceOnUse">
<stop stop-color="#0063F7"/>
<stop offset="1" stop-color="#9DBFF9"/>
</linearGradient>
<linearGradient id="paint17_linear_162_1830" x1="60.0981" y1="-17.1656" x2="-11.0226" y2="16.7826" gradientUnits="userSpaceOnUse">
<stop stop-color="#0063F7"/>
<stop offset="1" stop-color="#9DBFF9"/>
</linearGradient>
<linearGradient id="paint18_linear_162_1830" x1="60.0982" y1="-17.1657" x2="-11.0226" y2="16.7826" gradientUnits="userSpaceOnUse">
<stop stop-color="#0063F7"/>
<stop offset="1" stop-color="#9DBFF9"/>
</linearGradient>
<linearGradient id="paint19_linear_162_1830" x1="60.0982" y1="-17.1656" x2="-11.0226" y2="16.7828" gradientUnits="userSpaceOnUse">
<stop stop-color="#0063F7"/>
<stop offset="1" stop-color="#9DBFF9"/>
</linearGradient>
<linearGradient id="paint20_linear_162_1830" x1="60.0981" y1="-17.1657" x2="-11.0226" y2="16.7825" gradientUnits="userSpaceOnUse">
<stop stop-color="#0063F7"/>
<stop offset="1" stop-color="#9DBFF9"/>
</linearGradient>
<linearGradient id="paint21_linear_162_1830" x1="60.0981" y1="-17.1659" x2="-11.0226" y2="16.7823" gradientUnits="userSpaceOnUse">
<stop stop-color="#0063F7"/>
<stop offset="1" stop-color="#9DBFF9"/>
</linearGradient>
<linearGradient id="paint22_linear_162_1830" x1="60.0981" y1="-17.1659" x2="-11.0226" y2="16.7823" gradientUnits="userSpaceOnUse">
<stop stop-color="#0063F7"/>
<stop offset="1" stop-color="#9DBFF9"/>
</linearGradient>
<linearGradient id="paint23_linear_162_1830" x1="60.0981" y1="-17.1658" x2="-11.0226" y2="16.7824" gradientUnits="userSpaceOnUse">
<stop stop-color="#0063F7"/>
<stop offset="1" stop-color="#9DBFF9"/>
</linearGradient>
<linearGradient id="paint24_linear_162_1830" x1="60.0981" y1="-17.1659" x2="-11.0226" y2="16.7823" gradientUnits="userSpaceOnUse">
<stop stop-color="#0063F7"/>
<stop offset="1" stop-color="#9DBFF9"/>
</linearGradient>
<linearGradient id="paint25_linear_162_1830" x1="60.0981" y1="-17.1659" x2="-11.0226" y2="16.7823" gradientUnits="userSpaceOnUse">
<stop stop-color="#0063F7"/>
<stop offset="1" stop-color="#9DBFF9"/>
</linearGradient>
<linearGradient id="paint26_linear_162_1830" x1="60.0981" y1="-17.1659" x2="-11.0226" y2="16.7823" gradientUnits="userSpaceOnUse">
<stop stop-color="#0063F7"/>
<stop offset="1" stop-color="#9DBFF9"/>
</linearGradient>
<linearGradient id="paint27_linear_162_1830" x1="60.0981" y1="-17.1659" x2="-11.0226" y2="16.7823" gradientUnits="userSpaceOnUse">
<stop stop-color="#0063F7"/>
<stop offset="1" stop-color="#9DBFF9"/>
</linearGradient>
<linearGradient id="paint28_linear_162_1830" x1="60.0981" y1="-17.1658" x2="-11.0226" y2="16.7824" gradientUnits="userSpaceOnUse">
<stop stop-color="#0063F7"/>
<stop offset="1" stop-color="#9DBFF9"/>
</linearGradient>
<linearGradient id="paint29_linear_162_1830" x1="60.0981" y1="-17.1659" x2="-11.0226" y2="16.7823" gradientUnits="userSpaceOnUse">
<stop stop-color="#0063F7"/>
<stop offset="1" stop-color="#9DBFF9"/>
</linearGradient>
<linearGradient id="paint30_linear_162_1830" x1="60.0981" y1="-17.1659" x2="-11.0226" y2="16.7823" gradientUnits="userSpaceOnUse">
<stop stop-color="#0063F7"/>
<stop offset="1" stop-color="#9DBFF9"/>
</linearGradient>
<linearGradient id="paint31_linear_162_1830" x1="60.0981" y1="-17.1658" x2="-11.0226" y2="16.7825" gradientUnits="userSpaceOnUse">
<stop stop-color="#0063F7"/>
<stop offset="1" stop-color="#9DBFF9"/>
</linearGradient>
<linearGradient id="paint32_linear_162_1830" x1="60.0981" y1="-17.1656" x2="-11.0226" y2="16.7827" gradientUnits="userSpaceOnUse">
<stop stop-color="#0063F7"/>
<stop offset="1" stop-color="#9DBFF9"/>
</linearGradient>
<linearGradient id="paint33_linear_162_1830" x1="60.0981" y1="-17.1658" x2="-11.0226" y2="16.7825" gradientUnits="userSpaceOnUse">
<stop stop-color="#0063F7"/>
<stop offset="1" stop-color="#9DBFF9"/>
</linearGradient>
<linearGradient id="paint34_linear_162_1830" x1="60.0981" y1="-17.1658" x2="-11.0226" y2="16.7825" gradientUnits="userSpaceOnUse">
<stop stop-color="#0063F7"/>
<stop offset="1" stop-color="#9DBFF9"/>
</linearGradient>
<linearGradient id="paint35_linear_162_1830" x1="60.0981" y1="-17.1658" x2="-11.0226" y2="16.7825" gradientUnits="userSpaceOnUse">
<stop stop-color="#0063F7"/>
<stop offset="1" stop-color="#9DBFF9"/>
</linearGradient>
<linearGradient id="paint36_linear_162_1830" x1="60.0981" y1="-17.1656" x2="-11.0226" y2="16.7827" gradientUnits="userSpaceOnUse">
<stop stop-color="#0063F7"/>
<stop offset="1" stop-color="#9DBFF9"/>
</linearGradient>
<linearGradient id="paint37_linear_162_1830" x1="60.0981" y1="-17.1658" x2="-11.0226" y2="16.7825" gradientUnits="userSpaceOnUse">
<stop stop-color="#0063F7"/>
<stop offset="1" stop-color="#9DBFF9"/>
</linearGradient>
<linearGradient id="paint38_linear_162_1830" x1="60.0981" y1="-17.1656" x2="-11.0226" y2="16.7827" gradientUnits="userSpaceOnUse">
<stop stop-color="#0063F7"/>
<stop offset="1" stop-color="#9DBFF9"/>
</linearGradient>
<linearGradient id="paint39_linear_162_1830" x1="60.0981" y1="-17.1658" x2="-11.0226" y2="16.7825" gradientUnits="userSpaceOnUse">
<stop stop-color="#0063F7"/>
<stop offset="1" stop-color="#9DBFF9"/>
</linearGradient>
<linearGradient id="paint40_linear_162_1830" x1="60.0981" y1="-17.1656" x2="-11.0226" y2="16.7827" gradientUnits="userSpaceOnUse">
<stop stop-color="#0063F7"/>
<stop offset="1" stop-color="#9DBFF9"/>
</linearGradient>
<linearGradient id="paint41_linear_162_1830" x1="60.0981" y1="-17.1658" x2="-11.0226" y2="16.7825" gradientUnits="userSpaceOnUse">
<stop stop-color="#0063F7"/>
<stop offset="1" stop-color="#9DBFF9"/>
</linearGradient>
<linearGradient id="paint42_linear_162_1830" x1="60.0981" y1="-17.1656" x2="-11.0226" y2="16.7827" gradientUnits="userSpaceOnUse">
<stop stop-color="#0063F7"/>
<stop offset="1" stop-color="#9DBFF9"/>
</linearGradient>
<linearGradient id="paint43_linear_162_1830" x1="60.0981" y1="-17.1659" x2="-11.0226" y2="16.7824" gradientUnits="userSpaceOnUse">
<stop stop-color="#0063F7"/>
<stop offset="1" stop-color="#9DBFF9"/>
</linearGradient>
<linearGradient id="paint44_linear_162_1830" x1="60.0981" y1="-17.1659" x2="-11.0226" y2="16.7824" gradientUnits="userSpaceOnUse">
<stop stop-color="#0063F7"/>
<stop offset="1" stop-color="#9DBFF9"/>
</linearGradient>
<linearGradient id="paint45_linear_162_1830" x1="60.0981" y1="-17.1659" x2="-11.0226" y2="16.7824" gradientUnits="userSpaceOnUse">
<stop stop-color="#0063F7"/>
<stop offset="1" stop-color="#9DBFF9"/>
</linearGradient>
<linearGradient id="paint46_linear_162_1830" x1="60.0981" y1="-17.1659" x2="-11.0226" y2="16.7824" gradientUnits="userSpaceOnUse">
<stop stop-color="#0063F7"/>
<stop offset="1" stop-color="#9DBFF9"/>
</linearGradient>
<linearGradient id="paint47_linear_162_1830" x1="60.0981" y1="-17.1659" x2="-11.0226" y2="16.7824" gradientUnits="userSpaceOnUse">
<stop stop-color="#0063F7"/>
<stop offset="1" stop-color="#9DBFF9"/>
</linearGradient>
<linearGradient id="paint48_linear_162_1830" x1="60.0981" y1="-17.1659" x2="-11.0226" y2="16.7824" gradientUnits="userSpaceOnUse">
<stop stop-color="#0063F7"/>
<stop offset="1" stop-color="#9DBFF9"/>
</linearGradient>
<linearGradient id="paint49_linear_162_1830" x1="60.0981" y1="-17.1659" x2="-11.0226" y2="16.7823" gradientUnits="userSpaceOnUse">
<stop stop-color="#0063F7"/>
<stop offset="1" stop-color="#9DBFF9"/>
</linearGradient>
<linearGradient id="paint50_linear_162_1830" x1="60.0981" y1="-17.1659" x2="-11.0226" y2="16.7823" gradientUnits="userSpaceOnUse">
<stop stop-color="#0063F7"/>
<stop offset="1" stop-color="#9DBFF9"/>
</linearGradient>
<linearGradient id="paint51_linear_162_1830" x1="60.0981" y1="-17.1659" x2="-11.0226" y2="16.7824" gradientUnits="userSpaceOnUse">
<stop stop-color="#0063F7"/>
<stop offset="1" stop-color="#9DBFF9"/>
</linearGradient>
<linearGradient id="paint52_linear_162_1830" x1="60.0981" y1="-17.1659" x2="-11.0226" y2="16.7823" gradientUnits="userSpaceOnUse">
<stop stop-color="#0063F7"/>
<stop offset="1" stop-color="#9DBFF9"/>
</linearGradient>
<linearGradient id="paint53_linear_162_1830" x1="60.0982" y1="-17.1659" x2="-11.0226" y2="16.7824" gradientUnits="userSpaceOnUse">
<stop stop-color="#0063F7"/>
<stop offset="1" stop-color="#9DBFF9"/>
</linearGradient>
<linearGradient id="paint54_linear_162_1830" x1="60.0982" y1="-17.1659" x2="-11.0226" y2="16.7825" gradientUnits="userSpaceOnUse">
<stop stop-color="#0063F7"/>
<stop offset="1" stop-color="#9DBFF9"/>
</linearGradient>
<linearGradient id="paint55_linear_162_1830" x1="60.0981" y1="-17.1659" x2="-11.0226" y2="16.7823" gradientUnits="userSpaceOnUse">
<stop stop-color="#0063F7"/>
<stop offset="1" stop-color="#9DBFF9"/>
</linearGradient>
<linearGradient id="paint56_linear_162_1830" x1="60.0981" y1="-17.1657" x2="-11.0226" y2="16.7826" gradientUnits="userSpaceOnUse">
<stop stop-color="#0063F7"/>
<stop offset="1" stop-color="#9DBFF9"/>
</linearGradient>
<linearGradient id="paint57_linear_162_1830" x1="60.0981" y1="-17.1657" x2="-11.0226" y2="16.7826" gradientUnits="userSpaceOnUse">
<stop stop-color="#0063F7"/>
<stop offset="1" stop-color="#9DBFF9"/>
</linearGradient>
<linearGradient id="paint58_linear_162_1830" x1="60.0981" y1="-17.1657" x2="-11.0226" y2="16.7826" gradientUnits="userSpaceOnUse">
<stop stop-color="#0063F7"/>
<stop offset="1" stop-color="#9DBFF9"/>
</linearGradient>
<linearGradient id="paint59_linear_162_1830" x1="60.0981" y1="-17.1657" x2="-11.0226" y2="16.7826" gradientUnits="userSpaceOnUse">
<stop stop-color="#0063F7"/>
<stop offset="1" stop-color="#9DBFF9"/>
</linearGradient>
<linearGradient id="paint60_linear_162_1830" x1="60.0981" y1="-17.1657" x2="-11.0226" y2="16.7826" gradientUnits="userSpaceOnUse">
<stop stop-color="#0063F7"/>
<stop offset="1" stop-color="#9DBFF9"/>
</linearGradient>
<linearGradient id="paint61_linear_162_1830" x1="60.0981" y1="-17.1657" x2="-11.0226" y2="16.7826" gradientUnits="userSpaceOnUse">
<stop stop-color="#0063F7"/>
<stop offset="1" stop-color="#9DBFF9"/>
</linearGradient>
<linearGradient id="paint62_linear_162_1830" x1="60.0981" y1="-17.1657" x2="-11.0226" y2="16.7826" gradientUnits="userSpaceOnUse">
<stop stop-color="#0063F7"/>
<stop offset="1" stop-color="#9DBFF9"/>
</linearGradient>
<linearGradient id="paint63_linear_162_1830" x1="60.0981" y1="-17.1657" x2="-11.0226" y2="16.7826" gradientUnits="userSpaceOnUse">
<stop stop-color="#0063F7"/>
<stop offset="1" stop-color="#9DBFF9"/>
</linearGradient>
<linearGradient id="paint64_linear_162_1830" x1="60.0981" y1="-17.1657" x2="-11.0226" y2="16.7826" gradientUnits="userSpaceOnUse">
<stop stop-color="#0063F7"/>
<stop offset="1" stop-color="#9DBFF9"/>
</linearGradient>
<linearGradient id="paint65_linear_162_1830" x1="60.0981" y1="-17.1657" x2="-11.0226" y2="16.7826" gradientUnits="userSpaceOnUse">
<stop stop-color="#0063F7"/>
<stop offset="1" stop-color="#9DBFF9"/>
</linearGradient>
<linearGradient id="paint66_linear_162_1830" x1="60.0981" y1="-17.1657" x2="-11.0226" y2="16.7826" gradientUnits="userSpaceOnUse">
<stop stop-color="#0063F7"/>
<stop offset="1" stop-color="#9DBFF9"/>
</linearGradient>
<linearGradient id="paint67_linear_162_1830" x1="60.0981" y1="-17.1657" x2="-11.0226" y2="16.7826" gradientUnits="userSpaceOnUse">
<stop stop-color="#0063F7"/>
<stop offset="1" stop-color="#9DBFF9"/>
</linearGradient>
<linearGradient id="paint68_linear_162_1830" x1="16.3456" y1="25.236" x2="3.576" y2="27.0442" gradientUnits="userSpaceOnUse">
<stop stop-color="white"/>
<stop offset="1" stop-color="white" stop-opacity="0"/>
</linearGradient>
<linearGradient id="paint69_linear_162_1830" x1="33.476" y1="18.6274" x2="20.9076" y2="13.7233" gradientUnits="userSpaceOnUse">
<stop stop-color="#0063F7"/>
<stop offset="1" stop-color="white" stop-opacity="0"/>
</linearGradient>
<clipPath id="clip0_162_1830">
<rect width="50" height="40" fill="white"/>
</clipPath>
</defs>
</svg>
