<svg width="146" height="39" viewBox="0 0 146 39" fill="none" xmlns="http://www.w3.org/2000/svg">
<path d="M0 11.9915C0 10.2195 0.949443 8.58348 2.48789 7.70437L14.832 0.650571C16.35 -0.216857 18.2136 -0.216857 19.7316 0.65057L32.0757 7.70437C33.6142 8.58348 34.5636 10.2195 34.5636 11.9915V26.0112C34.5636 27.7831 33.6142 29.4192 32.0757 30.2983L19.7316 37.3521C18.2136 38.2195 16.35 38.2195 14.832 37.3521L2.48789 30.2983C0.949444 29.4192 0 27.7831 0 26.0112V11.9915Z" fill="#E5F0FF"/>
<path d="M1.64587 12.7959C1.64587 11.034 2.58475 9.40556 4.10959 8.52276L14.8078 2.32903C16.3382 1.44306 18.2254 1.44306 19.7557 2.32903L30.454 8.52276C31.9788 9.40556 32.9177 11.034 32.9177 12.7959V25.207C32.9177 26.969 31.9788 28.5974 30.454 29.4802L19.7557 35.674C18.2254 36.5599 16.3382 36.5599 14.8078 35.674L4.10959 29.4802C2.58476 28.5974 1.64587 26.969 1.64587 25.207V12.7959Z" fill="#9DBFF9"/>
<path d="M17.2818 20.5513C17.2818 18.6513 18.3721 16.9197 20.0856 16.0986L30.5605 11.0787C31.6531 10.5551 32.9177 11.3515 32.9177 12.5629V25.207C32.9177 26.9689 31.9788 28.5974 30.454 29.4802L19.7523 35.6759C18.6551 36.3111 17.2818 35.5194 17.2818 34.2515L17.2818 28.0538L17.2818 20.5513Z" fill="#5B8DEF"/>
<path d="M1.64587 12.5669C1.64587 11.3544 2.91232 10.5581 4.00501 11.0836L14.4839 16.1223C16.1942 16.9447 17.2818 18.6745 17.2818 20.5722V33.5984C17.2818 33.5984 17.2953 34.7876 17.5723 35.1878C17.8097 35.5309 18.1913 35.768 18.5366 35.8421C19.0352 35.9491 19.5471 35.7853 19.5471 35.7853V35.7853C18.1465 36.602 16.4155 36.6047 15.0124 35.7924L4.10959 29.4803C2.58475 28.5975 1.64587 26.969 1.64587 25.2071V12.5669Z" fill="#0063F7"/>
<path d="M52.9317 31.8519C52.6025 31.9506 52.0758 32.0494 51.3516 32.1481C50.6604 32.2469 49.9362 32.2963 49.1791 32.2963C48.4549 32.2963 47.7965 32.2469 47.204 32.1481C46.6444 32.0494 46.1671 31.8519 45.7721 31.5556C45.3771 31.2593 45.0643 30.8643 44.8339 30.3706C44.6364 29.8439 44.5377 29.1691 44.5377 28.3461V13.5332C44.5377 12.776 44.6693 12.1342 44.9327 11.6075C45.2289 11.0479 45.6404 10.5541 46.1671 10.1262C46.6938 9.69824 47.3357 9.31969 48.0928 8.99051C48.8828 8.62841 49.7222 8.3157 50.611 8.05235C51.4998 7.78901 52.4215 7.59151 53.3761 7.45983C54.3307 7.29525 55.2853 7.21295 56.2399 7.21295C57.82 7.21295 59.0708 7.52567 59.9925 8.15111C60.9142 8.74362 61.3751 9.73116 61.3751 11.1137C61.3751 11.5745 61.3092 12.0354 61.1776 12.4962C61.0459 12.9242 60.8813 13.3192 60.6838 13.6813C59.9925 13.6813 59.2848 13.7142 58.5606 13.78C57.8364 13.8459 57.1287 13.9446 56.4374 14.0763C55.7461 14.208 55.0878 14.3561 54.4624 14.5207C53.8698 14.6524 53.3596 14.8169 52.9317 15.0145V31.8519Z" fill="#494949"/>
<path d="M73.4295 31.8519C73.0674 31.9177 72.5243 32 71.8001 32.0988C71.1088 32.2304 70.4011 32.2963 69.6769 32.2963C68.9527 32.2963 68.2944 32.2469 67.7018 32.1481C67.1422 32.0494 66.6649 31.8519 66.2699 31.5556C65.8749 31.2593 65.5622 30.8643 65.3318 30.3706C65.1343 29.8439 65.0355 29.1691 65.0355 28.3461V8.24986C65.3976 8.18402 65.9243 8.10173 66.6155 8.00298C67.3397 7.87131 68.0639 7.80547 68.7881 7.80547C69.5123 7.80547 70.1542 7.85485 70.7138 7.9536C71.3063 8.05235 71.8001 8.24986 72.1951 8.54612C72.5901 8.84238 72.8864 9.25385 73.0839 9.78053C73.3143 10.2743 73.4295 10.9327 73.4295 11.7556V31.8519Z" fill="#494949"/>
<path d="M79.6128 31.9012C79.0861 31.4404 78.6582 30.8973 78.329 30.2718C78.0327 29.6464 77.8846 28.9386 77.8846 28.1486C77.8846 27.4903 78.0327 26.8484 78.329 26.2229C78.6582 25.5646 79.0532 24.9556 79.514 24.396L88.0068 14.4219H78.9215C78.724 14.0598 78.5265 13.599 78.329 13.0394C78.1644 12.4798 78.0821 11.8708 78.0821 11.2125C78.0821 10.0603 78.329 9.23739 78.8228 8.74363C79.3494 8.21694 80.0407 7.9536 80.8966 7.9536H96.4502C96.9769 8.41445 97.3883 8.95759 97.6846 9.58303C98.0138 10.2085 98.1784 10.9162 98.1784 11.7062C98.1784 12.3646 98.0138 13.0229 97.6846 13.6813C97.3883 14.3067 97.0098 14.8992 96.5489 15.4588L88.2537 25.4329H97.9315C98.129 25.795 98.31 26.2559 98.4746 26.8155C98.6721 27.3751 98.7709 27.984 98.7709 28.6424C98.7709 29.7945 98.5075 30.6339 97.9809 31.1606C97.4871 31.6544 96.8123 31.9012 95.9564 31.9012H79.6128Z" fill="#494949"/>
<path d="M114.753 32.6913C112.811 32.6913 111 32.4279 109.322 31.9012C107.676 31.3416 106.227 30.5187 104.977 29.4324C103.759 28.3461 102.787 26.98 102.063 25.3342C101.372 23.6883 101.026 21.7626 101.026 19.5571C101.026 17.3845 101.372 15.5247 102.063 13.9775C102.787 12.3975 103.726 11.1137 104.878 10.1262C106.03 9.10572 107.347 8.36507 108.828 7.90422C110.309 7.41046 111.823 7.16357 113.371 7.16357C115.115 7.16357 116.695 7.42692 118.111 7.9536C119.559 8.48028 120.793 9.20447 121.814 10.1262C122.867 11.0479 123.674 12.1506 124.233 13.4344C124.826 14.7182 125.122 16.1172 125.122 17.6314C125.122 18.7506 124.809 19.6065 124.184 20.199C123.559 20.7915 122.686 21.1701 121.567 21.3347L109.371 23.1616C109.733 24.2479 110.474 25.0708 111.593 25.6304C112.712 26.1571 113.996 26.4204 115.444 26.4204C116.794 26.4204 118.061 26.2559 119.246 25.9267C120.464 25.5646 121.452 25.1531 122.209 24.6923C122.736 25.0214 123.18 25.4823 123.542 26.0748C123.904 26.6673 124.085 27.2928 124.085 27.9511C124.085 29.4324 123.394 30.5352 122.011 31.2593C120.958 31.8189 119.773 32.1975 118.456 32.395C117.14 32.5925 115.905 32.6913 114.753 32.6913ZM113.371 13.2863C112.581 13.2863 111.889 13.4179 111.297 13.6813C110.737 13.9446 110.276 14.2903 109.914 14.7182C109.552 15.1132 109.272 15.5741 109.075 16.1007C108.91 16.5945 108.811 17.1047 108.779 17.6314L117.222 16.2489C117.123 15.5905 116.761 14.9322 116.136 14.2738C115.51 13.6154 114.589 13.2863 113.371 13.2863Z" fill="#494949"/>
<path d="M137.557 31.8519C137.227 31.9506 136.701 32.0494 135.977 32.1481C135.285 32.2469 134.561 32.2963 133.804 32.2963C133.08 32.2963 132.421 32.2469 131.829 32.1481C131.269 32.0494 130.792 31.8519 130.397 31.5556C130.002 31.2593 129.689 30.8643 129.459 30.3706C129.261 29.8439 129.163 29.1691 129.163 28.3461V13.5332C129.163 12.776 129.294 12.1342 129.558 11.6075C129.854 11.0479 130.265 10.5541 130.792 10.1262C131.319 9.69824 131.961 9.31969 132.718 8.99051C133.508 8.62841 134.347 8.3157 135.236 8.05235C136.125 7.78901 137.046 7.59151 138.001 7.45983C138.956 7.29525 139.91 7.21295 140.865 7.21295C142.445 7.21295 143.696 7.52567 144.617 8.15111C145.539 8.74362 146 9.73116 146 11.1137C146 11.5745 145.934 12.0354 145.802 12.4962C145.671 12.9242 145.506 13.3192 145.309 13.6813C144.617 13.6813 143.91 13.7142 143.186 13.78C142.461 13.8459 141.754 13.9446 141.062 14.0763C140.371 14.208 139.713 14.3561 139.087 14.5207C138.495 14.6524 137.985 14.8169 137.557 15.0145V31.8519Z" fill="#494949"/>
</svg>
