<svg width="86" height="57" viewBox="0 0 86 57" fill="none" xmlns="http://www.w3.org/2000/svg">
<path d="M71.8748 24.3591C71.8821 24.1059 71.9105 23.857 71.9105 23.6018C71.9105 10.5676 61.8146 0 49.362 0C40.1799 0 32.2946 5.75312 28.7778 13.9968C26.9018 12.4261 24.5279 11.4814 21.9381 11.4814C15.9706 11.4814 11.1264 16.4725 10.9814 22.6841C4.59011 25.0477 0 31.41 0 38.9114C0 47.7753 6.39978 55.0693 14.6263 56.0218V56.1341H69.4734V56.1034C69.6763 56.1121 69.8764 56.1341 70.0831 56.1341C78.498 56.1341 85.3179 48.9946 85.3179 40.1864C85.3179 32.0163 79.4435 25.2896 71.8748 24.3591Z" fill="url(#paint0_linear_166_1925)"/>
<defs>
<linearGradient id="paint0_linear_166_1925" x1="102.549" y1="-24.4552" x2="-9.24742" y2="40.0441" gradientUnits="userSpaceOnUse">
<stop stop-color="#0063F7"/>
<stop offset="1" stop-color="#9DBFF9"/>
</linearGradient>
</defs>
</svg>
